<?xml version="1.0" encoding="utf-8"?>
<!-- Generator: Adobe Illustrator 28.1.0, SVG Export Plug-In . SVG Version: 6.00 Build 0)  -->
<svg version="1.1" id="Capa_1" xmlns="http://www.w3.org/2000/svg" xmlns:xlink="http://www.w3.org/1999/xlink" x="0px" y="0px"
	 viewBox="0 0 142 142" style="enable-background:new 0 0 142 142;" xml:space="preserve">
<style type="text/css">
	.st0{fill:#F4EB2C;}
	.st1{fill:#FFFFFF;}
</style>
<path class="st0" d="M39.9,88.6c3.9,3.8,8.6,6.7,13.9,8.8c5.3,2.1,11.1,3.1,17.3,3.1c6.2,0,12-1,17.2-3.1c5.3-2,9.9-5,13.8-8.7
	c3.9-3.8,6.9-8.2,9.1-13.3c2.2-5,3.2-10.6,3.2-16.6s-1.1-11.6-3.2-16.6c-2.2-5.1-5.2-9.5-9.1-13.3c-3.9-3.7-8.5-6.6-13.8-8.7
	c-5.3-2-11.1-3.1-17.2-3.1c-6.2,0-12.1,1-17.4,3.1s-9.9,5-13.9,8.7c-3.9,3.7-7,8.2-9.2,13.2s-3.2,10.6-3.2,16.6
	c0,5.9,1.1,11.4,3.2,16.5C32.9,80.4,36,84.9,39.9,88.6z M47.5,48.7c1.3-3,3.1-5.7,5.4-8c2.2-2.3,4.9-4,8-5.3
	c3.1-1.2,6.5-1.9,10.2-1.9c3.6,0,7,0.6,10.1,1.9c3,1.2,5.7,3,8,5.2s4,4.9,5.3,8c1.2,3.1,1.9,6.5,1.9,10.2S95.8,66,94.5,69
	c-1.3,3.1-3,5.8-5.3,8c-2.2,2.2-4.9,4-7.9,5.2S74.9,84,71.2,84c-3.6,0-7.1-0.6-10.2-1.9c-3.1-1.2-5.8-3-8-5.3
	c-2.3-2.3-4.1-5-5.4-8.1c-1.3-3.1-2-6.5-2-10.1C45.6,55.2,46.2,51.8,47.5,48.7z M43.8,110.3h68.8c0,8-6.5,14.5-14.5,14.5H29.4
	C29.4,116.8,35.8,110.3,43.8,110.3z"/>
<circle class="st1" cx="71" cy="58.8" r="2.9"/>
</svg>
