<?xml version="1.0" encoding="UTF-8"?>
<svg xmlns="http://www.w3.org/2000/svg" version="1.1" viewBox="0 0 1080 1080">
  <defs>
    <style>
      .cls-1 {
        fill: #494949;
      }
    </style>
  </defs>
  <!-- Generator: Adobe Illustrator 28.6.0, SVG Export Plug-In . SVG Version: 1.2.0 Build 709)  -->
  <g>
    <g id="Capa_1">
      <g id="Capa_1-2" data-name="Capa_1">
        <g>
          <path class="cls-1" d="M183.5,449.2h-59.9c-8.9,0-16,7.2-16,16v200.2c0,8.9,7.2,16,16,16s16-7.2,16-16v-184.2h43.8c28.8.2,52.2,23.8,52.2,52.6s-23.6,52.6-52.6,52.6-16,7.2-16,16,7.2,16,16,16c46.7,0,84.7-38,84.7-84.7s-37.7-84.4-84.2-84.7v.2Z"/>
          <path class="cls-1" d="M769.1,661.9c-45.2-.3-82-37.3-82-82.5s37-82.6,82.6-82.6,16-7.2,16-16-7.2-16-16-16c-63.2,0-114.6,51.4-114.6,114.6s51.1,114.2,113.9,114.6h0c8.8,0,16-7.1,16-15.9s-7.1-16.1-15.9-16.2h0Z"/>
          <path class="cls-1" d="M416.8,525.4c-8.9,0-16,7.2-16,16v123.9c0,8.9,7.2,16,16,16s16-7.2,16-16v-123.9c0-8.9-7.2-16-16-16Z"/>
          <path class="cls-1" d="M480.4,525.4c-8.9,0-16,7.2-16,16v123.9c0,8.9,7.2,16,16,16s16-7.2,16-16v-123.9c0-8.9-7.2-16-16-16Z"/>
          <path class="cls-1" d="M956.4,517.9c-6.2,0-11.5,3.7-14.1,8.8-9.2-5.5-19.8-8.8-31.2-8.8-33.9,0-61.4,27.5-61.4,61.4s27.5,61.4,61.4,61.4,23.9-3.8,33.5-10.1c2.9,3.3,7.1,5.4,11.8,5.4,8.9,0,16-7.2,16-16.1v-86.1c0-8.9-7.2-16-16-16h0ZM911,608.6c-16.2,0-29.3-13.2-29.3-29.3s13.2-29.3,29.3-29.3,29.3,13.2,29.3,29.3-13.2,29.3-29.3,29.3Z"/>
          <path class="cls-1" d="M317.9,563.3c-33.9,0-61.4,27.5-61.4,61.4s27.5,61.4,61.4,61.4,61.4-27.5,61.4-61.4-27.5-61.4-61.4-61.4ZM317.9,654c-16.2,0-29.3-13.2-29.3-29.3s13.2-29.3,29.3-29.3,29.3,13.2,29.3,29.3-13.2,29.3-29.3,29.3Z"/>
          <path class="cls-1" d="M579,563.3c-33.9,0-61.4,27.5-61.4,61.4s27.5,61.4,61.4,61.4,61.4-27.5,61.4-61.4-27.5-61.4-61.4-61.4ZM579,654c-16.2,0-29.3-13.2-29.3-29.3s13.2-29.3,29.3-29.3,29.3,13.2,29.3,29.3-13.2,29.3-29.3,29.3Z"/>
          <path class="cls-1" d="M773.5,517.9c-33.9,0-61.4,27.5-61.4,61.4s27.5,61.4,61.4,61.4,61.4-27.5,61.4-61.4-27.5-61.4-61.4-61.4ZM773.5,608.6c-16.2,0-29.3-13.2-29.3-29.3s13.2-29.3,29.3-29.3,29.3,13.2,29.3,29.3-13.2,29.3-29.3,29.3Z"/>
          <path class="cls-1" d="M756,387.6c-43.7,18.1-57,68.8-57,68.8,13.2-9.7,31.4-13.2,68-26.9,36.6-13.7,16.3-51.7-11-41.9h0Z"/>
          <path class="cls-1" d="M693,424.1c3.9-23.3-22.1-24.1-25.2-6.9-3.7,28.3,18.8,50.5,18.8,50.5-1.1-9.8,2.6-20.4,6.5-43.7h0Z"/>
        </g>
      </g>
    </g>
  </g>
</svg>