<?xml version="1.0" encoding="utf-8"?>
<!-- Generator: Adobe Illustrator 28.1.0, SVG Export Plug-In . SVG Version: 6.00 Build 0)  -->
<svg version="1.1" id="Layer_1" xmlns="http://www.w3.org/2000/svg" xmlns:xlink="http://www.w3.org/1999/xlink" x="0px" y="0px"
	 viewBox="0 0 200 200" style="enable-background:new 0 0 200 200;" xml:space="preserve">
<style type="text/css">
	.st0{fill:#F4EB2C;}
</style>
<path class="st0" d="M197.9,100c0-0.05-0.01-0.09-0.01-0.14c-0.04-5-1.95-10-5.76-13.81l-0.43-0.43L96.07,18.41
	c-3.19-2.24-7.6-1.47-9.85,1.72c-2.24,3.19-1.47,7.6,1.72,9.85l89.58,62.96H9.16c-3.9,0-7.07,3.16-7.07,7.07s3.16,7.07,7.07,7.07
	h168.36l-89.58,62.96c-3.19,2.24-3.96,6.65-1.72,9.84c1.38,1.96,3.56,3,5.79,3c1.4,0,2.82-0.42,4.06-1.29l95.12-66.86l0.93-0.78
	c3.81-3.81,5.73-8.8,5.76-13.81C197.89,100.09,197.9,100.05,197.9,100z"/>
</svg>
