<?xml version="1.0" encoding="UTF-8"?>
<svg xmlns="http://www.w3.org/2000/svg" version="1.1" viewBox="0 0 1080 1080">
  <defs>
    <style>
      .cls-1 {
        fill: #494949;
      }
    </style>
  </defs>
  <!-- Generator: Adobe Illustrator 28.6.0, SVG Export Plug-In . SVG Version: 1.2.0 Build 709)  -->
  <g>
    <g id="Capa_1">
      <g>
        <path class="cls-1" d="M556.2,637.2c-5.5,0-10.7-.4-15.5-1.3-.3,0-.5-.1-.8-.2-3.2-1.3-4.9-4.2-4.4-7.5.5-3.5,3.4-6.2,7-6.6,6.3-.7,11.2-1.4,11.6-1.4,30.1-4.8,56.3-18.3,75.8-39.3,21.7-23.3,34.2-54.9,34.2-86.8,0-67.9-53.1-123.7-120.8-127h-.5c-5.7-1.2-9.8-5.8-10.1-11.6-.3-5.8,3.2-10.9,8.8-12.6l1.4-.4h5.6c15.6.6,30.9,3.4,45.5,8.6l2.5.9,24.1-37.3c.8-1.3,2.1-2.2,3.6-2.5,1.5-.3,3,0,4.3.8l46.6,30.1c1.3.8,2.2,2.1,2.5,3.6.3,1.5,0,3-.8,4.3l-24.4,37.8,1.8,1.9c10.4,11.3,19,24,25.5,37.9l1.1,2.4,44.7-9.6c3.1-.7,6.1,1.3,6.8,4.4l11.6,54.2c.7,3.1-1.3,6.1-4.3,6.8l-45.7,9.8v2.6c-.8,14.8-3.7,29.5-8.8,43.5l-.9,2.5,39.9,25.8c1.3.8,2.1,2.1,2.5,3.6.3,1.5,0,3-.8,4.3l-30.1,46.6c-.9,1.3-2.1,2.2-3.6,2.5-.9.2-2.6.3-4.3-.8l-40.7-26.3-1.8,1.6c-5.1,6-12.6,10.7-19.3,14.8l-1,.6c-19.3,12.1-46.2,19.3-69,19.3M542.1,629.8c23.6,4.1,57.1-3.1,79.8-17.3l1-.6c6.3-3.9,13.4-8.4,17.9-13.7l.3-.3,5.5-5,44.3,28.6,29.4-45.6-43.6-28.2,2.6-7.2c4.8-13.4,7.6-27.4,8.3-41.6l.3-7.4,49.8-10.7-11.4-53.1-49,10.5-3.3-7c-6.2-13.3-14.4-25.5-24.4-36.3l-5.1-5.5,26.8-41.4-45.6-29.5-26.5,41-7.2-2.5c-14-5-28.7-7.7-43.6-8.1h-4.6c0-.1-.4,0-.4,0-3.4,1-4.5,3.9-4.4,6.2.1,2.3,1.4,4.9,4.8,5.7,71,3.6,126.5,62.1,126.5,133.3s-13.1,66.6-35.9,91.1c-20.5,22-48,36.2-79.4,41.2-.5,0-5.4.8-11.9,1.5-1,.1-1.4.8-1.5,1.2,0,.2,0,.5.4.7M720.8,576.3h0s0,0,0,0ZM671.8,348.4s0,0,0,0h0ZM626,318.1h0Z"/>
        <path class="cls-1" d="M634.9,520.7c-7.9,5.3-15.5,10.8-24.1,14.9-12.1,5.8-25,9.7-38.2,11.7-32.7,5-66.7-1.3-95.5-17.4-15-8.4-28.1-20.1-38.3-34-16.5-22.3-25.5-49.7-25.5-77.4,0-68.4,52.7-124.4,119.6-129.9,2.1-.2,4.2-.1,6.2.1l-2.9-14.8-10.8-50.5c-.3-1.4-1.6-2.2-3-1.9l-54.3,11.7c-1.4.3-2.3,1.7-2,3l10.8,50.3-4.6,2.2c-12.7,6.1-24.5,14.1-34.9,23.7l-3.7,3.4-42.7-27.6c-.8-.5-1.5-.4-1.9-.3-.4,0-1.1.3-1.6,1.1l-30.1,46.6c-.5.8-.4,1.5-.4,1.9,0,.4.3,1.1,1.1,1.6l42,27.2-1.7,4.9c-4.9,13.7-7.8,28.1-8.5,42.6l-.2,5-48,10.3c-1.4.3-2.2,1.7-1.9,3.1l11.6,54.2c.3,1.4,1.7,2.3,3,2l47.1-10.1,2.2,4.7c6.4,13.6,14.7,26,24.9,37.1l3.4,3.7-25.8,39.9c-.5.8-.4,1.5-.4,1.9,0,.4.3,1.1,1.1,1.6l46.6,30.1c.8.5,1.5.4,1.9.4.4,0,1.1-.3,1.6-1.1l25.5-39.4s0,0,.2,0c48.7,17.2,107.1,12.9,152.7-27.1,1.1-.9,7.5-6.8,6-9.1-2.3-3.4-5.7-.6-6.5-.1"/>
        <polygon class="cls-1" points="603.8 858.5 603.8 737.7 549.5 839.1 530.3 839.1 476.2 740.1 476.2 858.5 438.6 858.5 438.6 674.1 476.2 674.1 540.5 788.8 603.8 674.1 641.4 674.1 641.4 858.5 603.8 858.5"/>
        <path class="cls-1" d="M701.7,846.6c-14.7-7.9-26.2-18.8-34.6-32.8-8.4-14-12.6-29.8-12.6-47.4s4.2-33.5,12.6-47.4c8.4-14,19.9-24.9,34.6-32.8,14.7-7.9,31.2-11.8,49.5-11.8s29.4,2.7,41.9,8.1c12.5,5.4,22.9,13.2,31.4,23.4l-26.5,24.4c-12-13.9-27-20.9-44.8-20.9s-20.9,2.4-29.5,7.3c-8.6,4.8-15.4,11.6-20.2,20.2-4.8,8.6-7.2,18.5-7.2,29.5s2.4,20.9,7.2,29.5c4.8,8.6,11.6,15.4,20.2,20.2,8.7,4.8,18.5,7.3,29.5,7.3,17.8,0,32.7-7,44.8-21.1l26.5,24.4c-8.5,10.3-19,18.2-31.6,23.7-12.6,5.4-26.5,8.1-42,8.1s-34.6-3.9-49.2-11.8"/>
        <path class="cls-1" d="M387.8,812.7c-9.7,7.1-20.9,10.7-33.6,10.7s-20.9-2.4-29.5-7.2c-8.6-4.8-15.4-11.6-20.2-20.2-4.8-8.7-7.3-18.5-7.3-29.5s2.4-20.9,7.3-29.5c4.8-8.6,11.6-15.4,20.2-20.2,8.6-4.8,18.5-7.2,29.5-7.2,17.8,0,32.7,7,44.8,20.9l26.5-24.4c-8.5-10.2-19-18-31.4-23.4-12.5-5.4-26.4-8.1-41.9-8.1s-34.8,3.9-49.5,11.8c-14.7,7.9-26.2,18.8-34.6,32.8-8.4,14-12.6,29.8-12.6,47.4s4.2,33.5,12.6,47.4c8.4,14,19.9,24.9,34.6,32.8,14.7,7.9,31.1,11.8,49.2,11.8s29.4-2.7,42-8.1c12.6-5.4,23.1-13.3,31.5-23.7v-50.4h-37.7v36.4Z"/>
      </g>
    </g>
  </g>
</svg>