<?xml version="1.0" encoding="UTF-8"?>
<svg xmlns="http://www.w3.org/2000/svg" version="1.1" viewBox="0 0 1080 1080">
  <defs>
    <style>
      .cls-1 {
        fill: #383838;
      }

      .cls-2, .cls-3 {
        fill: none;
        stroke: #383838;
        stroke-miterlimit: 10;
        stroke-width: 59px;
      }

      .cls-3 {
        stroke-linecap: round;
      }
    </style>
  </defs>
  <!-- Generator: Adobe Illustrator 28.6.0, SVG Export Plug-In . SVG Version: 1.2.0 Build 709)  -->
  <g>
    <g id="Capa_1">
      <g>
        <path class="cls-3" d="M665.1,561"/>
        <path class="cls-2" d="M728.3,457.4"/>
        <path class="cls-1" d="M665.2,586c-8.6,0-17-4.5-21.6-12.5-6.9-11.9-2.8-27.2,9.1-34.1l50.7-29.3v-52.7c0-13.8,11.2-24.9,24.9-24.9s24.9,11.2,24.9,24.9v54.1c0,16.9-9.1,32.7-23.8,41.2l-51.9,30c-3.9,2.3-8.2,3.3-12.4,3.3Z"/>
        <g>
          <path class="cls-1" d="M656.4,835.8c0-24.9,0-49.8,0-74.8,0-14-6.9-20.7-20.8-20.7-20.7,0-41.4,0-62.1,0-2.7,0-3.6-.5-3.5-3.4.2-11.1.1-22.3,0-33.4,0-6.4-3.6-9.5-10-9-5.1.5-7.3,3.4-7.3,9.9,0,24.5,0,49,0,73.5s0,49.3,0,73.9c0,1.9-.6,3.8,2.7,3.8,27.3-.1,54.6.1,82-.1,12.6-.1,18.9-7.1,19-19.8ZM639.2,761.5c0,24.6,0,49.3,0,73.9,0,2.2-.6,2.9-2.9,2.9-21.2,0-42.5-.1-63.8,0-3.1,0-2.6-1.7-2.6-3.5v-37.2c0-12.4,0-24.8,0-37.2,0-2.5.5-3.4,3.2-3.4,20.5.1,41.1.1,61.6,0,3,0,4.4,1.2,4.4,4.2Z"/>
          <path class="cls-1" d="M503.8,740.3c-20.4,0-40.9,0-61.3,0-3.3,0-4.5-.5-4.4-4.2.3-10.8.2-21.7,0-32.5,0-6.3-3.2-9.2-9.1-9-5.6.2-8.1,3.1-8.1,9.5,0,24.5,0,49,0,73.5,0,24.6,0,49.3,0,74,0,3.5,1.1,4.2,4.2,4.1,26.2-.1,52.4,0,78.6-.1,14,0,20.8-6.4,20.8-20.1.1-24.9.1-49.9,0-74.8,0-13.7-7-20.4-20.7-20.4ZM507.4,762.5c-.1,24.1-.1,48.1,0,72.2,0,3-1,3.7-3.9,3.7-20.7-.1-41.4-.1-62.1,0-2.9,0-3.4-.9-3.4-3.6.1-12.4,0-24.8,0-37.1h0c0-12.2.1-24.5,0-36.7,0-3,.8-3.7,3.7-3.7,20.1.1,40.2.1,60.4,0,3.8,0,5.2,1.4,5.2,5.2Z"/>
          <path class="cls-1" d="M252.6,839.1c-8.1-5.4-16.2-10.7-24.3-16-12.4-8.2-24.9-16.4-37.7-24.9,12.8-7.9,25.2-15.6,37.6-23.3,8.4-5.2,16.8-10.3,25.1-15.6,4.4-2.8,5.6-8.4,3.1-12.5-2.3-3.6-7.6-4.7-12.1-2.3-1.1.6-2.2,1.3-3.3,1.9-20.1,12.5-40.1,25-60.2,37.5-1.1.7-2.1,1.9-3.8,1.5v-4.2c0-25.8,0-51.5,0-77.3,0-6-2.7-8.9-8.1-9.1-5.9-.2-8.9,2.8-8.9,9.1,0,47.3,0,94.6,0,141.9,0,6.5,2.8,9.6,8.5,9.6,5.8,0,8.5-3,8.5-9.5,0-11.5,0-23.1,0-34.9,2,0,2.9,1.2,4.1,1.9,20.6,13.5,41.2,26.9,61.8,40.4,5.1,3.3,10.5,3,13.2-.9,3.1-4.4,1.7-9.8-3.5-13.3Z"/>
          <path class="cls-1" d="M770.5,740.3c-22.3,0-44.5,0-66.8,0s-18.3,7.2-18.3,18.5c0,26.5,0,53,0,79.5s6.3,17.4,17.2,17.4c22.8,0,45.6,0,68.5,0,4.3,0,8.4-1,11.4-4.5,0,0,0,0,0,0,0,0,0,0,0,0,1.2-.9,2.1-2,2.6-3.4,0,0,0,0,0,0,2-2.6,2.3-5.6,2.3-8.8,0-27.3,0-54.7,0-82,0-11.4-5.4-16.7-16.9-16.7ZM770.4,760.8c-.1,12.4,0,24.8,0,37.2s0,24.5,0,36.8c0,2.5-.3,3.7-3.3,3.6-20.4-.2-40.9-.1-61.3,0-2.6,0-3.3-.7-3.3-3.3,0-24.8.1-49.6,0-74.4,0-2.8.9-3.5,3.6-3.5,20.3.1,40.6.1,60.9,0,2.9,0,3.5.9,3.4,3.6Z"/>
          <path class="cls-1" d="M391.8,801c0-17,0-34.1,0-51.1,0-5.5-1.8-8.1-6.2-9.2-6.4-1.6-10.9,2.1-10.9,9,0,28.2,0,56.3,0,84.5,0,3.2-.6,4.3-4.1,4.2-18.3-.2-36.6,0-54.9,0-7.3,0-8.7-1.4-8.7-8.9,0-26.5,0-52.9,0-79.4,0-6.4-3-9.5-8.7-9.5-5.5,0-8.7,3.1-8.7,9.1,0,27.6-.2,55.2,0,82.8.1,13.1,10,23.2,22.4,23.2,25.5.1,51,0,76.5.1,3,0,3.4-1,3.4-3.6-.1-17,0-34.1,0-51.1Z"/>
          <path class="cls-1" d="M915.9,854.2c3.6-2.8,4.1-8.5,1.2-12.6-1.1-1.5-2.3-2.8-3.5-4.2-10.6-12.3-21.1-24.6-31.7-36.7-1.8-2-1.8-3.1,0-5.1,11-12.6,21.9-25.4,32.7-38.1,3.8-4.5,3.7-10,0-13.2-3.8-3.2-9-2.4-13,2.1-10.2,11.8-20.5,23.6-30.6,35.5-2.1,2.5-3.1,2.7-5.2,0-10-12-20.3-23.8-30.4-35.6-2-2.4-4.3-4-6.9-3.9-6.4.1-9.8,4.1-9.1,9.7.3,2.5,1.8,4.3,3.4,6.2,10.5,12.3,21,24.6,31.6,36.8,2.1,2.4,1.9,3.8-.1,6.1-11.2,12.8-22.2,25.8-33.2,38.8-4.2,4.9-4.3,10.7-.6,13.9,4.1,3.4,9.3,2.4,13.6-2.6,10.5-12.3,21.1-24.5,31.5-36.9,2.3-2.7,3.5-2.5,5.5.1,1.9,2.6,4.2,4.9,6.3,7.4,8.8,10.2,17.6,20.5,26.5,30.6,3.4,3.9,8.5,4.4,12.1,1.6Z"/>
          <path class="cls-1" d="M186.9,885.4c-2.3-.4-3.9,0-5.1,2.5-2.6,5.4-5.4,10.7-8.5,16.7-3.1-6.1-6.1-11.7-8.9-17.3-1-2.1-2.7-2.2-4.6-1.8-2.1.4-2.2,1.9-2.2,3.5,0,8.2,0,16.3,0,24.5,0,2.3.5,3.7,3.2,3.7,2.8,0,3.3-1.4,3.3-3.7,0-3.9,0-7.9,0-11.8,2.3,2.9,3.8,5.9,5.3,8.9.8,1.6,2,2.5,4,2.4,2,0,3-.9,3.8-2.6,1.4-3.1,3.2-6,4.8-8.9.7,4.2.7,8.1.7,12,0,2.1,0,3.8,3,3.8,2.8,0,3.2-1.4,3.2-3.7,0-8,0-16.1,0-24.1,0-1.6.4-3.6-2-4Z"/>
          <path class="cls-1" d="M567.9,899.2c-2.7,0-5.3,0-8,0-2.2,0-3.4.7-3.4,3.2,0,2.3,1.3,2.9,3.2,2.8,2,0,3.9,0,6.2,0-1.9,4.9-3.7,6.2-7.9,6.3-3.8.1-6.9-1.3-8.7-4.7-2.3-4.3-1.3-10.3,2-13.3,3.3-2.9,8.9-3.4,12.9-.6,2.4,1.7,3.9,1.3,5.3-.7,1.7-2.4-.2-3.5-1.9-4.6-11.2-7.2-25.1-.2-25.8,13.1-.5,9.1,5.2,16.1,14,17,9,.9,15.6-4.3,16.7-13.3.6-4.5,0-5.1-4.6-5.1Z"/>
          <path class="cls-1" d="M744.4,899.2c-2.3,0-4.5,0-6.8,0-2.1,0-4,0-4,2.9,0,2.8,1.6,3.2,3.9,3,1.7-.1,3.4,0,5.6,0-1.3,4.7-4.3,6.3-8.3,6.3-4.2,0-7.3-1.8-8.9-5.8-1.7-4.3-.4-9.8,2.7-12.4,3.4-2.8,8.5-3.2,12.5-.4,2.3,1.6,3.9,1.4,5.3-.6,1.8-2.6-.4-3.9-2.2-4.9-6.3-3.5-12.8-3.5-18.7.4-6.1,4-7.5,10.4-6.4,17.2,1.3,8.2,7.8,13.1,16.3,12.8,8-.3,13.2-5.2,14-13.4.5-4.8.3-5-5-5.1Z"/>
          <path class="cls-1" d="M515.2,889.3c0-2.3,0-4.2-3.2-4.1-3.2.1-3,2.2-2.9,4.4,0,4.9,0,9.9,0,15.9-4.5-6.8-8.3-12.6-12-18.3-1.4-2.2-3.4-2.2-5.5-1.7-2.1.4-1.7,2.2-1.7,3.8,0,8.2,0,16.3,0,24.5,0,2.1.4,3.4,3,3.5,2.7,0,3.3-1.1,3.3-3.5-.1-5,0-10,0-15.1.3,0,.6-.2.9-.3,3.6,5.5,7.4,10.9,10.8,16.5,1.5,2.5,3.6,2.5,5.8,2.2,2.6-.3,1.7-2.6,1.7-4.1,0-7.9,0-15.7,0-23.6Z"/>
          <path class="cls-1" d="M646,885.6c-2.7-.3-5.3-.2-8-.4-2.8-.2-4,.9-3.9,3.9.2,6.9,0,13.8,0,20.7,0,8.1-1.1,7.2,7.1,7.2,1.4,0,2.8,0,4.2,0,8.4-.6,14-6.5,14.2-14.8.2-9.6-4.9-15.7-13.6-16.6ZM653.3,902.8c-.9,6-5.3,9.2-11.4,8.4-1.6-.2-1.8-.9-1.8-2.1,0-2.8,0-5.6,0-8.4,0-1.7.2-3.4,0-5-.6-4.1.9-5,4.8-4.3,6,1.2,9.2,5.3,8.3,11.4Z"/>
          <path class="cls-1" d="M284.8,907.4c-1.3-1.8-2-2.9.6-4.4,3.7-2.2,4.8-6.6,3.6-10.8-1.2-4.1-4.1-6.2-8.3-6.6-1.8-.2-3.6-.3-5.4-.4q-7,.1-7,7.2c0,7,0,14,0,21.1,0,2.3.3,3.7,3.2,3.7,2.8,0,3.3-1.3,3.2-3.7-.1-1.7-.2-3.4,0-5,.2-1.1-1-2.9.7-3.2,1.5-.3,1.7,1.6,2.3,2.6,1.7,2.6,3.2,5.3,4.9,7.9,1.6,2.4,4.3,1.9,6,.9,2.1-1.1.2-2.9-.6-4.3-1-1.7-2-3.4-3.2-4.9ZM277.7,899.1c-3.7.4-3.3-1.9-3.2-4.7.1-1.1-.9-3.7,2.5-3.3,2.7.3,6,0,5.9,4.1,0,3.5-2.6,3.6-5.2,3.9Z"/>
          <path class="cls-1" d="M335.9,912.1c-2.7-3-5.5-6-8.4-8.9-1.5-1.5-1.7-2.5-.2-4.1,3-3.2,5.7-6.6,8.5-9.9.8-.9,1.3-1.9.7-3-.5-1-1.7-1-2.6-1-1.8-.1-3.2.4-4.4,1.9-2.2,2.7-4.5,5.3-7.6,9,0-3.3,0-5.3,0-7.4,0-2.2-.8-3.5-3.2-3.5-2.2,0-3.3,1-3.2,3.4,0,8.4,0,16.9,0,25.3,0,2.3.8,3.2,3.2,3.2,2.4,0,3.3-.9,3.2-3.2,0-2.3,0-4.5,0-7.8,3.6,3.9,6.3,7,9.1,9.8,1.9,1.9,4.8,1.9,6.5.4,2.1-1.8-.6-3.1-1.7-4.3Z"/>
          <path class="cls-1" d="M869.2,887.5c-.7-1.7-2-2.2-3.7-2.2-1.5,0-2.7.4-3.4,2-3.6,8.9-7.3,17.9-10.9,26.8-.8,2,0,2.9,2,3.1,2.2.2,3.5-.3,4.5-2.6,1-2.3.7-5.6,3.7-6.6,5.8-1.8,9.5.1,11.8,5.9.8,1.9,1.3,3.8,3.7,3.3,2.8,0,4-.8,2.8-3.6-3.6-8.7-7.1-17.3-10.6-26.1ZM863.3,901.5c.2-2.2,1.3-3.9,2.2-5.9,1.7,1.6,1.9,3.8,2.9,6-1.9.3-3.4.5-5-.1Z"/>
          <path class="cls-1" d="M232.2,887.7c-.8-1.9-2-2.5-3.9-2.5-1.8,0-2.8.8-3.4,2.5-3.4,8.5-6.8,16.9-10.3,25.3-.6,1.4-1.5,3.2.6,3.9,1.7.5,4,.9,5-1.6.7-1.8,1.5-3.6,2.2-5.4.4-.9.6-2,1.8-2,3,0,6.1-.5,8.8.2,2.2.6,2.1,3.7,3,5.7.8,1.8,1.4,3.9,3.9,3.3,3.7.2,3.4-1.7,2.5-4-3.4-8.4-6.9-16.8-10.3-25.3ZM225.8,901.7c1-2.4,1.8-4.2,2.9-6.7,1,2.5,1.7,4.2,2.6,6.3-1.6,1.1-3.3.5-5.5.4Z"/>
          <path class="cls-1" d="M379.5,911.2c-2.1,0-4.2-.2-6.3,0-2.9.3-3.8-.6-3.8-3.6,0-2.8.6-4.2,3.7-3.8,1.4.2,2.8,0,4.2,0,1.9,0,2.9-.7,3-2.7,0-2-.7-3.2-2.9-3.2-1.8,0-3.7,0-5.5,0-1.8.1-2.3-.6-2.5-2.4-.3-3.3.4-5,4.2-4.4,1.8.3,3.7,0,5.5,0,2.1,0,3.1-.6,3.1-2.9,0-2.4-1.2-2.8-3.2-2.8-4.1,0-8.2.2-12.2,0-3.1-.2-3.9,1.1-3.8,4,.2,3.9,0,7.9,0,11.8,0,4.1,0,8.2,0,12.2,0,2.4.6,3.7,3.3,3.6,4.4-.1,8.7,0,13.1,0,2,0,3.1-.6,3.1-2.9,0-2.2-.9-3.1-3-3.1Z"/>
          <path class="cls-1" d="M427.4,885.5c-6.3,0-12.6,0-19,0-2,0-2.8.8-2.9,2.7,0,1.8.6,2.9,2.6,3,2.1.2,5-1.3,6.1.8.9,1.7.3,4.4.3,6.6,0,1.7,0,3.4,0,5.1h0c0,3.2,0,6.5,0,9.7,0,2.3.5,3.7,3.3,3.7,2.8,0,3.3-1.4,3.2-3.7,0-5.1,0-10.1,0-15.2,0-2.1-.6-4.6.3-6.2,1.2-2.2,4-.6,6.1-.8,2-.2,2.6-1.1,2.6-3,0-1.9-.7-2.8-2.7-2.8Z"/>
          <path class="cls-1" d="M829.6,885.5c-6.6,0-13.2,0-19.9,0-1.6,0-2.1.9-2.2,2.4-.4,4.1,2.6,3.4,4.8,3.2,3.4-.3,4.9.6,4.5,4.3-.3,2.8,0,5.6,0,8.4,0,3.4,0,6.8,0,10.1,0,2,.4,3.2,2.8,3.2,2.2,0,3.4-.6,3.3-3.1-.1-4.9,0-9.9,0-14.8,0-2.5-.7-5.5.4-7.4,1-1.7,4.1-.4,6.3-.6,2-.2,2.6-1.2,2.6-3.1,0-1.7-.7-2.6-2.5-2.6Z"/>
          <path class="cls-1" d="M919.4,911.2c-1,0-2-.1-2.9,0-3.9.7-5.4-.5-5.1-4.8.4-5.7,0-11.5.1-17.2,0-2.2-.2-3.9-3-3.9-2.8,0-3.2,1.4-3.1,3.7.1,4.1,0,8.1,0,12.2,0,4.3,0,8.7,0,13,0,1.9.5,2.9,2.6,2.9,3.8,0,7.6,0,11.4,0,1.9,0,2.9-.8,3-2.7,0-2-.8-3.2-2.9-3.2Z"/>
          <path class="cls-1" d="M461.7,888.5c0-2.4-1-3.3-3.3-3.3-2.3,0-3.3,1.1-3.3,3.4,0,4.2,0,8.4,0,12.6,0,4.2,0,8.4,0,12.6,0,2.3,1,3.2,3.3,3.2,2.4,0,3.2-1.1,3.2-3.3,0-8.4,0-16.9,0-25.3Z"/>
          <path class="cls-1" d="M692.5,901.4h0c0-4.5,0-9,0-13.5,0-2.3-1.5-2.8-3.4-2.7-1.7,0-2.9.6-2.9,2.7,0,8.7,0,17.4,0,26.1,0,2.5,1.1,3.1,3.4,3.1,2.2,0,3-1,2.9-3.1,0-4.2,0-8.4,0-12.6Z"/>
          <path class="cls-1" d="M779.5,885.2c-2.2,0-3.4.8-3.4,3.2,0,8.6,0,17.2,0,25.8,0,2.2,1,2.9,3.1,2.9,2.1,0,3.1-.6,3.1-2.9-.1-4.2,0-8.5,0-12.7,0-4.4,0-8.7,0-13.1,0-2.1-.7-3.2-2.8-3.2Z"/>
        </g>
        <path class="cls-1" d="M523.5,657.1c-2.9,0-5.8-.4-8.6-1.1-2.8-.7-5.5-1.9-8-3.3l-173.3-100c-14.7-8.5-23.8-24.2-23.8-41.2v-201.1c0-16.9,9.1-32.7,23.8-41.2l174.2-100.6c14.7-8.5,32.9-8.5,47.5,0l172.9,99.8c3.1,1.8,5.9,4,8.3,6.6,7.1,7.8,10.3,18.3,8.6,28.8-1.7,10.5-7.9,19.5-17.1,24.7l-171.4,96.9v198.5c0,10.4-4.7,19.9-12.9,26.3-5.9,4.5-12.9,6.9-20.1,6.9ZM359.7,510.1l146.9,84.8v-198.6l173.5-98.1-148.6-85.8-171.8,99.2v198.4ZM703.2,311.6s0,0,0,0h0Z"/>
      </g>
    </g>
  </g>
</svg>