<?xml version="1.0" encoding="UTF-8"?>
<svg xmlns="http://www.w3.org/2000/svg" version="1.1" viewBox="0 0 1080 1080">
  <defs>
    <style>
      .cls-1 {
        fill: #494949;
      }
    </style>
  </defs>
  <!-- Generator: Adobe Illustrator 28.7.1, SVG Export Plug-In . SVG Version: 1.2.0 Build 142)  -->
  <g>
    <g id="Layer_1">
      <g>
        <path class="cls-1" d="M235,404c63.1-163,247-244.3,410-181.2,3.1,1.2,6.5-.3,7.7-3.4,1.2-3-.3-6.5-3.4-7.7-34.2-13.2-69.3-20.3-104.1-21.8l-9.3-31.7c-1.6-5.3-9.1-5.3-10.6,0l-9.3,31.7c-126.3,5.8-243.5,84.4-292,209.7-13,33.6-20.2,68.7-21.8,104.1l-31.7,9.3c-5.3,1.6-5.3,9.1,0,10.6l31.7,9.3c1.5,33.4,8,66.6,19.7,98.4.9,2.4,3.1,3.9,5.6,3.9s1.4-.1,2-.4c3.1-1.1,4.6-4.5,3.5-7.6-26.5-72.2-25.7-151.5,2.1-223.3Z"/>
        <path class="cls-1" d="M689.6,754c-7.9,5.3-16.2,10.3-24.7,14.9-2.9,1.5-4,5.1-2.4,8,1.1,2,3.1,3.1,5.2,3.1s1.9-.2,2.8-.7c8.8-4.7,17.4-9.9,25.7-15.5,2.7-1.8,3.4-5.5,1.6-8.2-1.8-2.7-5.5-3.4-8.2-1.6Z"/>
        <path class="cls-1" d="M671.6,271.6c8.3,4.7,16.5,10,24.3,15.5,1,.7,2.2,1.1,3.4,1.1,1.8,0,3.7-.9,4.8-2.5,1.9-2.7,1.3-6.4-1.4-8.3-8.1-5.8-16.6-11.2-25.3-16.2-2.8-1.6-6.5-.6-8.1,2.2-1.6,2.8-.6,6.5,2.2,8.1Z"/>
        <path class="cls-1" d="M650.7,247.8c-4.3-1.9-8.8-3.7-13.2-5.5-4.9-1.9-9.9-3.7-14.7-5.3-3.1-1-6.4.7-7.5,3.8-1,3.1.7,6.4,3.8,7.5,4.7,1.5,9.4,3.2,14.1,5.1,4.3,1.7,8.5,3.4,12.7,5.3.8.3,1.6.5,2.4.5,2.3,0,4.4-1.3,5.4-3.5,1.3-3,0-6.5-3-7.8Z"/>
        <path class="cls-1" d="M733.8,717.2c-6.7,6.8-13.8,13.4-21.2,19.5-2.5,2.1-2.9,5.8-.8,8.3,1.2,1.4,2.9,2.1,4.5,2.1s2.7-.5,3.8-1.4c7.7-6.4,15.1-13.2,22-20.3,2.3-2.3,2.2-6.1,0-8.4-2.3-2.3-6.1-2.2-8.4,0Z"/>
        <path class="cls-1" d="M505.4,235.2c8.4-.7,16.9-1.1,25.2-1.1h3.5c3.3-.2,6-2.5,6-5.8,0-3.3-2.6-6-5.8-6h-3.7c-8.7,0-17.6.4-26.3,1.1-3.3.3-5.7,3.2-5.4,6.4.3,3.1,2.9,5.4,5.9,5.4s.4,0,.5,0Z"/>
        <path class="cls-1" d="M447.3,246.4c.6,0,1.1,0,1.7-.2,9.2-2.8,18.6-5.1,27.9-6.9,3.2-.6,5.3-3.7,4.7-6.9-.6-3.2-3.7-5.3-6.9-4.7-9.8,1.9-19.6,4.3-29.1,7.2-3.1.9-4.9,4.2-4,7.4.8,2.6,3.1,4.2,5.7,4.2Z"/>
        <path class="cls-1" d="M591.3,240.7c.4,0,.9.1,1.3.1,2.7,0,5.2-1.9,5.8-4.6.7-3.2-1.3-6.3-4.5-7-9.7-2.1-19.7-3.8-29.6-4.9-3.3-.4-6.2,2-6.6,5.2-.4,3.2,2,6.2,5.2,6.6,9.5,1.1,19.1,2.7,28.4,4.7Z"/>
        <path class="cls-1" d="M798.3,422.9c.9,2.4,3.1,3.9,5.6,3.9s1.3-.1,2-.3c3.1-1.1,4.7-4.5,3.6-7.6-3.3-9.4-7.2-18.7-11.5-27.7-1.4-3-4.9-4.2-7.9-2.8-3,1.4-4.2,4.9-2.8,7.9,4.1,8.6,7.8,17.6,11,26.6Z"/>
        <path class="cls-1" d="M810.6,600.3c2.6,0,5-1.7,5.7-4.4,2.6-9.6,4.8-19.5,6.4-29.3.5-3.2-1.6-6.3-4.9-6.8-3.2-.6-6.3,1.6-6.8,4.9-1.6,9.4-3.6,18.9-6.2,28.1-.9,3.1,1,6.4,4.2,7.3.5.1,1,.2,1.6.2Z"/>
        <path class="cls-1" d="M803.6,616.8c-3-1.2-6.5.3-7.7,3.4l-.3.8c-3.5,8.9-7.4,17.8-11.7,26.3-1.5,2.9-.3,6.5,2.6,7.9.9.4,1.8.6,2.7.6,2.2,0,4.2-1.2,5.3-3.2,4.5-8.8,8.6-18.1,12.2-27.5l.3-.7c1.2-3-.3-6.5-3.4-7.7Z"/>
        <path class="cls-1" d="M826.2,536.9c.4-6.1.6-12.3.6-18.4s0-7.7-.2-11.5c-.1-3.3-2.8-6-6.1-5.7-3.3.1-5.8,2.9-5.7,6.1.1,3.7.2,7.4.2,11.1,0,5.9-.2,11.8-.6,17.7-.2,3.3,2.3,6.1,5.5,6.3.1,0,.3,0,.4,0,3.1,0,5.7-2.4,5.9-5.5Z"/>
        <path class="cls-1" d="M425.1,248c-1.2-3-4.7-4.5-7.7-3.2-9.2,3.8-18.3,8.1-27.1,12.8-2.9,1.5-4,5.1-2.4,8,1.1,2,3.1,3.1,5.2,3.1s1.9-.2,2.8-.7c8.4-4.5,17.2-8.7,26-12.3,3-1.2,4.5-4.7,3.2-7.7Z"/>
        <path class="cls-1" d="M818.1,447.6c-.8-3.2-4-5.1-7.2-4.3-3.2.8-5.1,4-4.3,7.2,2.3,9.3,4.1,18.8,5.5,28.3.4,3,3,5.1,5.8,5.1s.6,0,.8,0c3.2-.5,5.5-3.5,5-6.7-1.4-9.8-3.3-19.7-5.7-29.4Z"/>
        <path class="cls-1" d="M753.8,704c1.1.9,2.4,1.3,3.7,1.3s3.5-.8,4.6-2.2c6.2-7.8,12.1-16,17.5-24.4,1.8-2.7,1-6.4-1.8-8.2-2.8-1.8-6.4-1-8.2,1.8-5.2,8.1-10.8,15.9-16.8,23.4-2,2.6-1.6,6.3.9,8.3Z"/>
        <path class="cls-1" d="M773.6,371c1.1,1.8,3.1,2.9,5.1,2.9s2.1-.3,3.1-.9c2.8-1.7,3.7-5.3,2-8.1-5.2-8.5-10.8-16.9-16.8-24.8-2-2.6-5.7-3.1-8.3-1.2-2.6,2-3.1,5.7-1.2,8.3,5.8,7.6,11.2,15.7,16.1,23.8Z"/>
        <path class="cls-1" d="M739,325.1c1.2,1.3,2.8,1.9,4.3,1.9s2.9-.5,4-1.6c2.4-2.2,2.5-6,.3-8.4-6.8-7.3-14-14.4-21.5-20.9-2.5-2.2-6.2-1.9-8.3.5-2.2,2.5-1.9,6.2.5,8.4,7.2,6.3,14.1,13.1,20.6,20.1Z"/>
        <path class="cls-1" d="M244,564.3c3.2-.5,5.5-3.4,5-6.7-1.3-9.5-2.2-19.1-2.5-28.7-.1-3.3-2.8-6-6.1-5.7-3.3.1-5.8,2.9-5.7,6.1.4,9.9,1.3,20,2.7,29.9.4,3,2.9,5.1,5.8,5.1s.6,0,.8,0Z"/>
        <path class="cls-1" d="M583.9,797.6c-9.4,1.8-19,3.1-28.5,4-3.3.3-5.7,3.2-5.4,6.4.3,3.1,2.9,5.4,5.9,5.4s.3,0,.5,0c9.9-.9,19.9-2.3,29.7-4.1,3.2-.6,5.3-3.7,4.7-6.9-.6-3.2-3.7-5.3-6.9-4.7Z"/>
        <path class="cls-1" d="M365,749.5c-7.8-5.6-15.4-11.6-22.5-17.9-2.5-2.2-6.2-1.9-8.4.5-2.2,2.4-1.9,6.2.5,8.4,7.5,6.6,15.4,12.9,23.5,18.7,1,.7,2.2,1.1,3.4,1.1,1.8,0,3.7-.9,4.8-2.5,1.9-2.7,1.3-6.3-1.4-8.3Z"/>
        <path class="cls-1" d="M344.5,301.7c1.3,0,2.7-.5,3.8-1.4,7.3-6.1,15.1-11.9,23-17.3,2.7-1.8,3.4-5.5,1.6-8.2-1.8-2.7-5.5-3.4-8.2-1.6-8.3,5.6-16.3,11.6-24,18-2.5,2.1-2.8,5.8-.7,8.3,1.2,1.4,2.9,2.1,4.5,2.1Z"/>
        <path class="cls-1" d="M318.6,311.6c-7,7.1-13.6,14.7-19.8,22.5-2,2.6-1.6,6.3,1,8.3,1.1.9,2.4,1.3,3.7,1.3s3.5-.8,4.6-2.2c6-7.5,12.4-14.7,19-21.6,2.3-2.3,2.2-6.1,0-8.4-2.3-2.3-6.1-2.2-8.4,0Z"/>
        <path class="cls-1" d="M638.9,781.1c-8.9,3.7-18,6.9-27.1,9.6-3.1.9-4.9,4.2-4,7.4.8,2.6,3.1,4.2,5.7,4.2s1.1,0,1.7-.2c9.5-2.8,19-6.2,28.2-10,3-1.2,4.5-4.7,3.2-7.7-1.2-3-4.7-4.4-7.7-3.2Z"/>
        <path class="cls-1" d="M497.9,800.8c-3.2-.4-6.2,1.9-6.6,5.2-.4,3.2,1.9,6.2,5.2,6.6,9.9,1.2,20,1.8,29.9,1.9h0c3.2,0,5.9-2.6,5.9-5.8,0-3.3-2.6-6-5.8-6-9.6-.1-19.2-.8-28.7-1.9Z"/>
        <path class="cls-1" d="M412.5,789.3c2.3,0,4.4-1.3,5.4-3.5,1.3-3,0-6.5-3-7.8-8.7-3.9-17.4-8.3-25.7-13-2.8-1.6-6.4-.6-8.1,2.2-1.6,2.8-.6,6.5,2.2,8.1,8.7,4.9,17.6,9.5,26.7,13.5.8.3,1.6.5,2.4.5Z"/>
        <path class="cls-1" d="M441.8,788.4c-3.1-1.1-6.4.7-7.5,3.8-1,3.1.7,6.4,3.8,7.5,9.5,3.1,19.2,5.8,28.9,8,.4,0,.9.1,1.3.1,2.7,0,5.2-1.9,5.8-4.6.7-3.2-1.3-6.3-4.5-7.1-9.3-2.1-18.6-4.6-27.7-7.6Z"/>
        <path class="cls-1" d="M303.5,689.3c-2-2.6-5.7-3.1-8.3-1.2-2.6,2-3.1,5.7-1.2,8.3,6,8,12.4,15.7,19.2,23,1.2,1.3,2.8,1.9,4.3,1.9s2.9-.5,4-1.6c2.4-2.2,2.5-6,.3-8.4-6.5-7-12.7-14.5-18.4-22.1Z"/>
        <path class="cls-1" d="M262.7,613.5c-3.2-9-6-18.3-8.3-27.6-.8-3.2-4-5.1-7.2-4.3-3.2.8-5.1,4-4.3,7.2,2.4,9.7,5.3,19.3,8.6,28.7.9,2.4,3.1,3.9,5.6,3.9s1.3-.1,2-.3c3.1-1.1,4.7-4.5,3.6-7.6Z"/>
        <path class="cls-1" d="M273.7,640.1c-1.4-3-4.9-4.2-7.9-2.8-3,1.4-4.2,4.9-2.8,7.9,4.3,9,9,17.9,14.2,26.4,1.1,1.8,3.1,2.9,5.1,2.9s2.1-.3,3-.8c2.8-1.7,3.7-5.3,2-8.1-4.9-8.2-9.5-16.7-13.6-25.4Z"/>
        <path class="cls-1" d="M256.4,443.5c2.5-9.2,5.5-18.4,9-27.3,1.2-3.1-.3-6.5-3.4-7.6-3-1.2-6.5.3-7.6,3.4-3.6,9.3-6.8,18.9-9.4,28.5-.9,3.2,1,6.4,4.1,7.3.5.1,1.1.2,1.6.2,2.6,0,5-1.7,5.7-4.3Z"/>
        <path class="cls-1" d="M289.5,356.7c-2.8-1.8-6.4-1-8.2,1.8-5.4,8.4-10.4,17.1-14.9,26-1.5,2.9-.3,6.5,2.6,7.9.9.4,1.8.6,2.7.6,2.2,0,4.2-1.2,5.3-3.2,4.3-8.5,9.1-17,14.3-25,1.8-2.7,1-6.4-1.8-8.2Z"/>
        <path class="cls-1" d="M245.3,464.8c-3.3-.5-6.3,1.6-6.8,4.9-1.6,9.8-2.8,19.8-3.4,29.8-.2,3.3,2.3,6.1,5.5,6.3.1,0,.3,0,.4,0,3.1,0,5.7-2.4,5.9-5.5.6-9.5,1.7-19.2,3.3-28.6.5-3.2-1.6-6.3-4.9-6.8Z"/>
        <path class="cls-1" d="M532.3,137.8c-1.7-.3-2.9-.8-3.6-1.4-.5-.5-.9-1.1-1.1-1.8-.2-.7-.3-1.9-.3-3.4v-2.6s0-6.8,0-6.8c0-2.7.1-4.6.3-5.8.2-1.2.7-2.2,1.4-3.1.6-.9,1.5-1.6,2.6-2.1,1.1-.5,2.3-.8,3.6-.8s2.3.2,3.3.7c1,.5,1.7,1.1,2.3,1.9.5.7.8,1.7,1,2.8s.3,3,.3,5.5v7.3c0,2,0,3.5-.2,4.6-.1,1.1-.3,1.9-.5,2.4-.4.8-.9,1.4-1.5,1.7-.6.3-1.6.6-3,.8v.7h15.3v-.7c-1.7-.3-2.9-.8-3.6-1.4-.5-.5-.9-1.1-1.1-1.8-.2-.7-.3-1.9-.3-3.4v-14.7c0-2.5-.9-4.5-2.7-5.8-1.8-1.4-4.2-2.1-7.1-2.1s-7.4,1.4-10.2,4.3v-.6c0-1.2-.2-2.4-.5-3.8l-9.5,1.2v.7c1,0,1.8.2,2.4.5.6.3,1,.8,1.4,1.4.4.6.6,1.4.8,2.3.1,1,.2,2.6.2,5v8.5c0,2,0,3.6-.2,4.6-.1,1.1-.3,1.9-.5,2.4-.4.8-.9,1.4-1.5,1.7-.6.3-1.6.6-3,.8v.7h15.3v-.7Z"/>
        <path class="cls-1" d="M140.2,505.3c1.1.3,1.9.7,2.4,1,.9.7,1.3,1.6,1.3,2.9s-.3,2.3-1,4l-5.4,13.7-4.6-15.2c-.4-1.5-.7-2.6-.7-3.4s.4-1.8,1.1-2.3c.5-.3,1.3-.6,2.4-.7v-.8h-13.3v.8c2.4.1,3.6,1.2,3.6,3.1s-.2,1.7-.7,2.9l-5.9,15.6-4.2-12.9c-.9-2.9-1.4-4.8-1.4-5.7,0-1.9,1.3-2.9,3.9-3v-.8h-13.5v.8c1,.2,1.7.5,2.2.9.8.6,1.6,2,2.4,4.3l.8,2.5,6.9,21h1.2l9.1-23.2,7.6,23.2h1.2l8.2-20.6.7-1.8c.6-1.6,1.2-2.8,1.6-3.6.5-.8.9-1.4,1.4-1.8.8-.6,1.7-1,2.7-1v-.8h-10.2v.8Z"/>
        <path class="cls-1" d="M533.8,911.1l-3.7-1.7c-1.7-.8-3-1.6-3.8-2.5-.8-.9-1.2-1.9-1.2-3.1s.5-2.5,1.4-3.4c.9-.9,2-1.4,3.3-1.4s1.9.2,2.8.7c.9.5,1.8,1.2,2.5,2.1.5.6.9,1.3,1.2,1.9.3.7.6,1.6.8,2.7h.7l-.4-7.9h-.7c-.4.7-.8,1-1.2,1s-.6,0-1-.2l-1.2-.5c-1-.4-2.1-.6-3.3-.6-2.6,0-4.7.9-6.3,2.6-1.4,1.5-2.1,3.3-2.1,5.4s.7,3.7,2.1,5.1c1,1,2.9,2.3,5.8,3.9,1.7.9,2.8,1.6,3.5,2,.7.5,1.3,1,1.7,1.6.8,1.1,1.2,2.4,1.2,3.8s-.6,3.2-1.7,4.1c-1.1.9-2.3,1.3-3.8,1.3-2.4,0-4.5-1.3-6.2-3.9-1-1.4-1.8-3.4-2.4-5.8h-.6v9.8h.6c.4-.7,1-1,1.8-1s.6,0,.8,0c.2,0,.8.3,1.8.7,1.6.6,3.1.9,4.6.9,2.8,0,5.1-.9,6.9-2.8,1.6-1.6,2.4-3.6,2.4-6s-.5-3.8-1.6-5.2-2.7-2.7-4.9-3.7Z"/>
        <path class="cls-1" d="M918.9,533.3c2,.9,4.5,1.4,7.3,1.4s5.9-.7,7.9-2.1c2-1.4,3.3-3.4,3.9-6.1l-.7-.2c-.6,1.8-1.3,3.1-2.1,3.9-.7.7-1.7,1.3-2.8,1.7-1.1.4-2.3.6-3.5.6s-3.3-.4-4.8-1.1c-1.5-.7-2.8-1.8-3.9-3-1-1.3-1.8-2.9-2.4-4.8-.6-1.9-.9-3.9-.9-5.9s0-1.3.1-2.5h20.3c0-2.9-.8-5.3-2.5-7.3-1.1-1.2-2.4-2.2-4-2.9-1.6-.7-3.3-1-5.1-1-3.5,0-6.6,1.1-9.3,3.2-3.7,3-5.6,7-5.6,12.2s1,7,2.9,9.6c1.4,1.9,3.1,3.3,5.2,4.2ZM919.8,507.3c1.5-1.7,3.2-2.6,5.2-2.6s2.3.3,3.3,1c1,.7,1.9,1.6,2.5,2.7.7,1.2,1.1,3,1.3,5.3h-14.9c.3-2.6,1.2-4.7,2.6-6.4Z"/>
        <path class="cls-1" d="M837.2,637.1c13-33.7,20.1-68.8,21.7-104.1l31.8-9.3c5.3-1.6,5.3-9.1,0-10.6l-31.7-9.3c-2.7-59.7-21.5-118.4-55.8-169.3-1.8-2.7-5.5-3.4-8.2-1.6-2.7,1.8-3.4,5.5-1.6,8.2,58,86.1,70.2,195.1,32.8,291.7-30.6,79-90,141.3-167.5,175.5-77.4,34.2-163.6,36.2-242.5,5.7-3-1.2-6.5.3-7.7,3.4-1.2,3.1.3,6.5,3.4,7.7,33.8,13.1,68.9,20.4,104.1,22l9.2,31.5c1.6,5.3,9.1,5.3,10.6,0l9.2-31.5c40.3-1.8,80.3-11.1,118.4-27.9,80.3-35.5,142-100.2,173.7-182.1Z"/>
        <path class="cls-1" d="M395,348.1l-1.9,16.5-.8,7.2s0,0,.1,0c2.4,0,7.2.3,14.3,1.2,0-1.3,0-4.5-.9-8.4-1.3-5.2-4.2-11.6-10.8-16.6Z"/>
        <path class="cls-1" d="M381.1,364.6c1.1-.5,2.4-1,3.8-1.6,2.2-.8,4.1-1.4,5.6-1.6l-13.4-11.5,4,14.7Z"/>
        <path class="cls-1" d="M577.8,343.4c-17.9,4.1-9.3,30,7.4,22.6,60.5-24.8,61.2,70.2,36.7,105.6-5.9-7-12.9-13-20.9-17.3-14.2-7.6-30.2-9.7-46.1-10.1-28.8-.7-56.7,6.1-85.3,7-.7,0-1.4,0-2.1,0-14.3,0-23.5-6.7-29.6-15.9-1.7,2.3-4.2,4-7,4.7-9.2,2.2-26.2,6-37.2,6s-4.1-.1-5.7-.4c-5.4-1-8.8-3.4-10.9-6.5,1.1-.8,2.2-1.6,3.4-2.3,1.6,2.3,4.1,3.9,8.1,4.7,9.9,1.8,32.1-3.3,41.4-5.5,2.8-.7,5.1-2.8,6.1-5.6.8-2.1,1.7-5.1,2.8-9.1,2.6-10.1,6.1-49.4-29.1-56.8-.4,0-.7-.1-1.1-.2,1.1,5,.9,8.8.8,9.5,1.7.3,1.7.9,0,.8-1,0-2.3,0-3.7-.1-1.7-.1-3.7-.2-5.8-.4-1.8-.2-3.6-.3-5.1-.5-1.9-.2-3.5-.4-4.7-.6-1.5-.2-1.7-.8-.5-.8l.9-8.1c-16.2,3.4-24.7,15.8-27.7,21.2-.7,1.3-.2,3,1.2,3.5,20.7,8.7,17.2,17.2,15.5,27.8-.8,5-1.6,10.2-1,14.5-1.2.7-2.4,1.5-3.6,2.3-1.2-5.7-.1-12.3.7-17.5.1-.9.3-1.8.5-2.7,1.5-8.9,2.4-13.7-13.5-20.5-.7-.3-1.4-.8-2-1.3-.8.9-1.6,1.9-2.4,2.9-10.6,13-18.3,15.3-18.3,15.3-6.2,12.3,4.9,20.4,15.7,23.7,4.9,1.5,9.1,1.7,12.6,5.9-2.6,2.8-4.9,6-6.6,9.9-7.9,17.5-20.4,15.7-20.9,15.7-1.6-.3-3.1.8-3.4,2.4-.3,1.6.8,3.1,2.4,3.4.1,0,1,.2,2.4.2,5.1,0,17.2-2,24.9-19.2,1.2-2.6,2.7-4.8,4.4-6.9.3.7.6,1.5.9,2.4-9.1,7.9-7,22.8-6.9,23.5.2,1.5,1.5,2.5,2.9,2.5s.3,0,.5,0c1.6-.2,2.7-1.8,2.5-3.4,0-.1-1.4-9.6,2.9-15.9,1.5,6.5,2.7,15.4,3.7,27.6,3.9,47.8,23.9,52.9,29.3,60,5.4,7,4.4,21.4,2.8,35.7-4.1,17.2-13.8,32.8-23.1,44.6-.5.6-.8,1.3-1.1,2-6.7.3-11.9,4.3-11.9,9.2s.6,4.9,2.2,6.6c-19.3.9-30.5,2.1-30.5,3.3,0,3.4,89.1,6.1,199,6.1s199-2.8,199-6.1-23.4-3.3-61-4.4c1.3-2,2-4.3,2-6.9,0-10.8.1-25.5,0-29.9-.3-7.3-4.9-7.8-18.8-28.7-7.4-11.1-9.9-24.5-13.8-37.1-4-12.8-8.1-25.7-13.7-38,22.2-26.8,24.5-65.2,20.6-98.2-5.6-44.2-37-66.4-80.7-56.1ZM399.5,422.5c2.4,0,4.4,2.3,3.9,5-.3,1.6-1.6,3-3.1,3.3-1.1.2-2.1-.1-2.9-.7,1.6-.4,2.5-.5,2.6-.5,1.6-.2,2.7-1.7,2.5-3.3-.2-1.6-1.7-2.7-3.3-2.5-.2,0-1.2.2-2.8.5.7-1,1.8-1.8,3.2-1.8ZM579.1,623.1c0,.2-.1.4-.2.6-6.7.3-12,4.3-12,9.2s.2,2.6.6,3.7c-7.6,0-15.3,0-23.2,0-53.2,0-101.5.6-137.2,1.7,15.3-14.6,28-33.9,37.5-50.8l5.7,9.4c11.2,14.9,23.9,21.8,34.8,24.9,11.9,3.4,16.7-2.9,11.6-14.7,0-.1-.1-.2-.2-.4-1.4-3.2-3.8-5.7-6.7-7.3-6-3.3-14.4-10.6-20.1-21-4.4-8.2-4.7-20.3-6.7-29.5,0-.1,0-.2,0-.2,0,0,38.9.1,73.1.1l10.1,9.8s36.6,27.2,38.8,36.7c1.1,9.2-2,19.2-5.9,27.7ZM639.9,594.2c15.4,4.6,20.8,13.5,20.8,13.5v18.6c-4.1,1.4-6.9,4.2-6.9,7.4s.6,2.7,1.5,3.9c-15.9-.3-33.5-.6-52.3-.8.4-.7.9-1.2,1.1-2l15.2-37.5,5.2-10.4c5.7,3.4,11.1,5.9,15.3,7.2Z"/>
        <path class="cls-1" d="M119.1,394.5c.8-.9,1.8-1.4,2.9-1.4,1.2,0,2.9.4,5.2,1.2l45.2,15.9c2.2.8,3.8,1.5,4.7,2.3,1,.8,1.4,1.7,1.4,2.9,0,1.2-.3,2.8-.9,5l1.8.6c.7-2.3,1.5-4.7,2.4-7.2.8-2.5,1.7-5,2.5-7.4.8-2.4,1.6-4.7,2.3-6.8.7-2.1,1.3-3.8,1.8-5.2,1.1-3,2.3-6.5,3.7-10.4,1.4-3.9,2.7-7.3,3.9-10.4-.1,0-.3,0-.4-.1.3-.8.7-1.6,1.1-2.5.5-1,1.1-2.2,1.9-3.6.8-1.5,1.7-3.1,2.6-4.8,1-1.7,1.9-3.3,2.9-4.9l-1.7-.9c-1,1.7-2,3.1-3,4-1,1-2.1,1.4-3.3,1.4-1.2,0-2.5-.5-4-1.5-1.5-1-3.1-2.6-4.9-4.7l-7.2-8.3,11.1-20.6,16.8,2.3c3.5.4,5.5,1.3,5.9,2.5.5,1.3,0,3.4-1.5,6.3l1.7.9c.5-1.3,1.3-2.8,2.3-4.8,1-1.9,2.1-4,3.3-6.2.9-1.6,1.8-3.3,2.7-4.9.9-1.6,1.7-3,2.5-4.1l-1.7-.9c-.5.9-1.5,1.7-2.7,2.4-1.3.7-3.2.9-5.9.6l-64.7-8c-.1.2-.2.5-.4.7-.1.2-.2.5-.4.7l40.8,47.7c2,2.3,3.3,4.4,3.7,6.1.4,1.8.5,3.3.1,4.6h0c-1.6-.4-3.2-.8-4.7-1.2-2.2-.7-3.9-1.2-5-1.6-3.1-1.1-5.6-2.1-7.4-2.9l-.7,2.1c3.1,1.4,5.6,2.8,7.6,4.1,2,1.3,3.5,2.7,4.4,4.3.9,1.5,1.4,3.3,1.4,5.3,0,2-.5,4.4-1.5,7.3l-2.3,6.7c-.7,2.1-1.4,3.6-2.2,4.5-.7.9-1.7,1.4-2.9,1.4-1.2,0-2.9-.4-5.1-1.2l-45.2-15.9c-2.2-.8-3.8-1.6-4.8-2.3-.9-.7-1.4-1.7-1.4-2.9,0-1.2.3-2.8,1-4.9l-1.8-.6c-.4,1.4-1,3.2-1.7,5.3-.7,2.1-1.4,4.2-2.1,6.4-.8,2.4-1.6,4.6-2.4,6.6-.8,2-1.4,3.7-1.9,4.9l1.8.6c.8-2,1.6-3.5,2.3-4.5ZM178.8,346.2l-20.1-23.4,30.5,4.2-10.4,19.3Z"/>
        <path class="cls-1" d="M192.8,252.7c1.1-.6,2.1-.6,3.2-.2,1.1.5,2.6,1.5,4.3,3l36.1,31.6c1.7,1.5,2.9,2.8,3.5,3.9.6,1.1.7,2.1.2,3.2-.5,1.1-1.4,2.5-2.7,4.3l1.5,1.3c.8-1.1,1.9-2.5,3.3-4.2,1.4-1.7,3-3.4,4.6-5.3,1.5-1.7,3-3.4,4.5-5,1.5-1.6,2.8-3,3.8-4l-1.5-1.3c-1.5,1.6-2.8,2.6-3.9,3.2-1,.6-2.1.7-3.2.2-1.1-.5-2.6-1.5-4.3-3l-16.7-14.6,4.9-5.6s0,0,0,0l1.1-1.3c1.7-1.9,3.4-3,5.2-3.3,1.7-.2,3.6,0,5.6.8,2,.8,4.3,1.9,6.7,3.2l8.7,4.8c3.7,2,6.7,2.8,8.9,2.4,2.3-.4,4.2-1.5,5.7-3.3,1.7-2,2.7-3.9,2.8-5.7.1-1.8,0-3.9-.7-6.2l-1.8.4c.3,1.4.4,2.5.4,3.5,0,1-.3,1.9-1,2.8-.9,1.1-2,1.5-3.4,1.2-1.4-.3-3.4-1.2-5.9-2.5l-9-4.7c-3.6-2-6.7-2.8-9.4-2.7-2.7.2-5.7,1.7-9.1,4.4-.3.2-.6.5-.9.8,1.2-1.8,2.1-3.6,2.7-5.3,1.2-3.3,1.7-6.3,1.5-9-.2-2.7-.9-5.1-2-7.1-1.1-2-2.4-3.7-3.9-4.9-2.4-2.1-5.1-3.3-8.1-3.7-3-.4-6.3.2-9.6,1.8-3.4,1.6-6.8,4.4-10.2,8.3-.8.9-2,2.4-3.8,4.5-1.8,2.1-3.7,4.3-5.7,6.6-1.4,1.6-2.8,3.2-4.3,4.8-1.5,1.6-2.7,2.9-3.6,3.9l1.5,1.3c1.5-1.6,2.8-2.7,3.8-3.3ZM204.7,238c3.9-4.4,7.6-6.6,11.3-6.6,3.7,0,7.5,1.7,11.3,5.1,2.2,2,4,4,5.2,6.3,1.2,2.2,1.6,4.8,1.1,7.5-.5,2.8-2.3,5.9-5.3,9.3l-4.3,4.9-17.9-15.6c-2.5-2.2-3.9-4-4.1-5.4-.2-1.4.6-3.2,2.6-5.4Z"/>
        <path class="cls-1" d="M239.9,201.6c1.1-.4,2.2-.3,3.2.4,1,.6,2.3,1.9,3.8,3.7l19.2,23.5c2.8,3.4,5.2,6.1,7.3,8.1,2.1,2,4.2,3.4,6.3,4.3,2.1.9,4.4,1.4,7,1.6,2.9.2,5.7-.3,8.3-1.5,2.6-1.2,5.2-2.8,7.6-4.7,3.1-2.5,5.3-5.4,6.7-8.6,1.4-3.2,1.8-6.4,1.3-9.5-.4-2.8-1.4-5.7-3.1-8.7-1.7-3-3.9-6.2-6.8-9.7l-18.4-22.5c-1.5-1.8-2.5-3.4-3-4.6-.5-1.2-.5-2.4,0-3.6.5-1.2,1.6-2.5,3.2-3.9l-1.2-1.5c-.8.7-1.8,1.6-3,2.7-1.2,1.1-2.5,2.2-3.8,3.2-1.3,1-2.6,2.1-4.1,3.3-1.5,1.2-2.7,2.1-3.7,2.7l1.2,1.5c1.7-1.3,3.3-2.2,4.7-2.5,1.4-.4,2.7-.2,3.9.4,1.2.7,2.6,1.9,4.1,3.7l19,23.4c3,3.7,5.3,7.3,6.9,11,1.6,3.6,2,7.1,1.3,10.5-.7,3.4-3,6.6-6.8,9.7-2.7,2.2-5.2,3.4-7.6,3.7-2.4.3-4.7,0-6.9-1.1-2.2-1.1-4.3-2.7-6.4-4.7-2.1-2.1-4.2-4.4-6.3-6.9l-20.2-24.8c-1.5-1.8-2.5-3.3-2.9-4.4-.4-1.1-.3-2.2.3-3.2.6-1,1.7-2.3,3.4-3.7l-1.2-1.5c-1.1,1-2.5,2.2-4.2,3.7-1.7,1.5-3.4,2.9-5.1,4.3-1.9,1.6-3.8,3-5.5,4.4-1.7,1.3-3.1,2.4-4.2,3.2l1.2,1.5c1.7-1.3,3.2-2.2,4.3-2.6Z"/>
        <path class="cls-1" d="M299.9,167c.8,1.3,1.5,2.6,2.1,3.8.6,1.2,1.2,2.3,1.6,3.2l1.9-1.1c-1.8-4.1-3.1-7.5-3.7-10.2-.6-2.6-.4-5,.8-6.9,1.1-2,3.4-4,6.9-5.9l4.5-2.6,27.3,47.7c1.3,2.2,2,4,2.2,5.4.2,1.4-.2,2.6-1.2,3.7-1,1.1-2.7,2.4-4.9,3.8l1,1.7c1.3-.9,3-2,5.2-3.3,2.2-1.3,4.5-2.7,7.1-4.1,2.3-1.3,4.6-2.6,6.8-3.8,2.3-1.2,4.1-2.2,5.7-3l-1-1.7c-2.4,1.2-4.3,2-5.8,2.3-1.5.3-2.7,0-3.8-.9-1.1-.9-2.2-2.4-3.5-4.7l-27.3-47.7,4.5-2.6c3.5-2,6.4-3,8.7-2.9s4.4,1,6.3,2.9c2,1.9,4.3,4.7,6.9,8.4l1.9-1.1c-.6-.9-1.2-1.9-1.9-3-.7-1.1-1.5-2.4-2.2-3.7-.6-1.1-1.4-2.6-2.5-4.6-1-2-2.1-4.2-3.1-6.4-2.3,1.4-4.8,2.9-7.5,4.5-2.8,1.7-5.5,3.3-8.3,4.8-2.8,1.6-5.3,3-7.6,4.3-2.3,1.3-4.8,2.8-7.6,4.4-2.8,1.6-5.6,3.2-8.4,4.7-2.8,1.5-5.4,2.9-7.8,4.2,1.4,2,2.8,4,4,5.9,1.2,1.9,2.1,3.4,2.7,4.5Z"/>
        <path class="cls-1" d="M376.6,187.6c1-.4,2.3-.9,3.8-1.5,1.6-.6,3.3-1.2,5.1-1.9,1.9-.7,3.6-1.2,5.4-1.8l-.7-1.8c-1.9.6-3.5,1-4.9,1-1.4,0-2.5-.3-3.4-1.1-.9-.8-1.5-2-2-3.7-.4-1.7-.6-4-.6-6.8v-11c0,0,22-8.2,22-8.2l11.1,12.7c2.4,2.6,3.3,4.6,2.8,5.8-.5,1.3-2.3,2.5-5.3,3.8l.7,1.8c1.2-.6,2.8-1.3,4.9-2.1,2-.8,4.2-1.6,6.6-2.5,1.8-.7,3.5-1.3,5.3-1.9,1.8-.6,3.3-1.1,4.5-1.4l-.7-1.8c-1,.3-2.2.3-3.6,0-1.4-.3-3-1.5-4.8-3.4l-43.4-48.6c-.2,0-.5.2-.7.3-.2,0-.5.2-.7.3l-.7,62.8c0,3.1-.4,5.4-1.3,7-.8,1.6-1.8,2.8-2.9,3.5l.7,1.8c.9-.5,1.8-.9,2.9-1.3ZM379.5,157.1l.2-30.9,20.2,23.2-20.5,7.7Z"/>
        <path class="cls-1" d="M641.2,893.7c-8-4.6-18.7-5.3-32.2-2.2-2.1.5-4.6,1.1-7.7,1.9-3.1.8-5.9,1.5-8.3,2.2-2.9.7-5.7,1.4-8.7,2-2.9.6-5.3,1-7,1.4l.5,2.1c2.1-.4,3.8-.6,5-.4,1.2.2,2.2.8,2.8,1.9.7,1.1,1.3,2.9,1.9,5.5l11.9,50.8c.6,2.5.8,4.3.7,5.7,0,1.3-.6,2.3-1.6,3-1,.7-2.6,1.3-4.7,2l.5,2.1c1.7-.5,4-1.2,6.9-1.9,2.9-.7,5.8-1.4,8.9-2.1,1.5-.3,3.2-.7,5.1-1.1,1.9-.4,3.8-.8,5.6-1.1,1.8-.3,3.2-.6,4.3-.9,8.5-2,15.5-5.2,20.9-9.7,5.4-4.5,9-9.9,11-16.2,1.9-6.3,2-13.2.3-20.6-2.7-11.4-8-19.4-16-24ZM638.2,955c-2.7,3.5-6.9,5.9-12.6,7.2-3.1.7-5.3.6-6.6-.3-1.3-.9-2.3-3.2-3.1-6.7l-12-51.2c-.8-3.5-.9-6-.2-7.4.7-1.4,2.6-2.4,5.7-3.2,5.5-1.3,10.3-1.1,14.2.6,3.9,1.7,7.2,4.9,10,9.6,2.7,4.7,5,10.8,6.8,18.5,1.7,7.4,2.5,13.9,2.3,19.5-.2,5.5-1.7,10-4.4,13.5Z"/>
        <path class="cls-1" d="M727.9,911.4c-1.5-3.3-2.5-6.1-3.2-8.2l-2.2,1c1.4,5.5,2,10.1,1.7,13.8-.3,3.7-1.2,6.7-2.9,8.9-1.7,2.2-4,4-6.9,5.2l-4.7,2.1c-1.9.8-3.4,1.3-4.5,1.4-1.1,0-2-.3-2.8-1.1-.8-.9-1.5-2.3-2.4-4.2l-10.5-24.3,3.1-1.3c2.6-1.1,4.9-1.4,7-.9,2.1.5,4,1.5,5.7,3.1,1.7,1.6,3.2,3.4,4.5,5.5l2.2-1c-1.8-3.6-3.2-6.3-4.1-8.2-.9-1.9-1.7-3.7-2.4-5.3-.7-1.6-1.5-3.4-2.3-5.3-.9-1.9-2-4.8-3.3-8.5l-2.2,1c.3,1.4.5,3,.6,4.7.1,1.7,0,3.4-.3,5.1-.3,1.7-.9,3.2-2,4.6-1,1.4-2.5,2.5-4.4,3.3h0s-3.1,1.3-3.1,1.3l-10.4-23.9c-.9-2-1.3-3.5-1.4-4.7,0-1.1.3-2,1.1-2.8.8-.7,2.2-1.5,4-2.3l4-1.7c2.9-1.3,5.7-1.8,8.3-1.6,2.6.2,5.2,1.4,7.8,3.5,2.5,2.2,5.1,5.4,7.8,9.9l2.2-1c-.4-.7-.9-1.7-1.4-2.8-.6-1.1-1.1-2.3-1.7-3.6-.6-1.4-1.4-3.5-2.5-6.1-1-2.7-2.1-5.5-3-8.4-2.9,1.4-6.2,3-10,4.6-3.8,1.7-7.1,3.1-10.1,4.4-1.6.7-3.7,1.6-6.2,2.7-2.5,1.1-5.2,2.2-8.1,3.5-2.9,1.2-5.9,2.5-8.8,3.7-3,1.3-5.8,2.4-8.5,3.5l.8,1.9c2-.8,3.7-1.2,4.9-1.3,1.2,0,2.3.4,3.1,1.4.8,1,1.8,2.7,2.8,5l20.8,47.9c1,2.3,1.6,4.1,1.7,5.4.2,1.3-.2,2.4-1.1,3.2-.9.8-2.3,1.8-4.3,2.8l.8,1.9c2.6-1.2,5.4-2.5,8.3-3.8,2.9-1.3,5.9-2.6,8.7-3.9,2.9-1.3,5.6-2.5,8.1-3.6,2.5-1.1,4.6-2,6.2-2.7,3.2-1.4,6.9-3,11-4.7,4.1-1.8,7.9-3.3,11.2-4.6-1.6-2.8-3-5.5-4.2-8.2-1.2-2.7-2.2-4.8-2.8-6.2Z"/>
        <path class="cls-1" d="M788.3,873.6c-2-3.2-3.6-5.9-4.7-8l-2,1.3c1.4,3.3,2.4,6.4,3,9.4.6,3,.7,5.9.4,8.5-.3,2.7-1.1,5-2.2,7.1-1.2,2.1-2.8,3.8-4.8,5l-4.3,2.8c-1.6,1-2.9,1.6-3.9,1.8-1,.2-1.9,0-2.7-.8-.8-.7-1.8-2-3-3.8l-28.7-45.1c-1.4-2.2-2.2-3.9-2.5-5.2-.3-1.3,0-2.4.7-3.5.8-1,2.2-2.2,4.1-3.6l-1.1-1.8c-1.6,1.1-3.7,2.5-6.2,4.2-2.5,1.7-5,3.3-7.6,5-2.8,1.8-5.5,3.5-8.1,5-2.6,1.5-4.6,2.8-6.1,3.6l1.1,1.8c1.9-1.1,3.4-1.8,4.6-2,1.2-.2,2.3,0,3.3.9,1,.8,2.2,2.3,3.6,4.5l28,44.1c1.4,2.1,2.2,3.8,2.6,5.1.4,1.3.2,2.4-.6,3.3-.7,1-2,2.1-3.8,3.4l1.1,1.8c2.4-1.6,4.9-3.3,7.6-5,2.7-1.8,5.4-3.5,8-5.2,2.6-1.7,5.1-3.3,7.4-4.8,2.3-1.5,4.2-2.7,5.7-3.6,3-1.9,6.3-4,10.2-6.4,3.8-2.4,7.3-4.5,10.4-6.3-2.1-2.6-4-5.2-5.7-7.7-1.7-2.6-3-4.5-3.9-5.9Z"/>
        <path class="cls-1" d="M857,796.7c-.7-1.1-1-2-.8-2.8.2-.8.7-1.7,1.6-2.7l-1.5-1.5c-1,1.1-2.4,2.6-4.1,4.4-1.7,1.8-3.6,3.7-5.6,5.8-1.3,1.3-2.8,2.8-4.4,4.4-1.6,1.6-3.1,3.1-4.6,4.5-1.5,1.4-2.8,2.7-3.8,3.7l1.5,1.5c2.1-2,3.9-3.4,5.4-4.1,1.5-.7,3-.7,4.5,0,1.5.7,3.4,2.2,5.7,4.5l7.3,7.3c.9.9,1.6,1.8,1.9,2.6.3.8.4,1.8.2,3-.1.9-.5,2-1.1,3.2-.6,1.2-1.5,2.4-2.7,3.6-4.6,4.6-10.2,6.1-16.8,4.5-6.6-1.6-14.4-6.9-23.3-15.8-3.3-3.3-6.2-6.7-8.6-10.3-2.5-3.6-4.3-7.3-5.5-10.9-1.2-3.7-1.6-7.2-1.1-10.5.5-3.4,2.1-6.4,4.8-9.1,1.8-1.8,3.9-3.3,6.3-4.4,2.4-1.1,4.8-1.7,7.1-1.8,3.5-.4,6.8.2,9.7,1.7,2.9,1.5,6.1,3.5,9.4,6.1l1.7-1.7c-4.6-4.5-8.2-8.2-11-11-2.7-2.8-5-5.2-6.8-7.2l-1.7,1.7c2.7,3.3,3.6,5.4,2.6,6.3-.4.4-1.1.7-2.2.8-3,.4-6.1,1.1-9.1,2.4-3.1,1.2-6.3,3.5-9.6,6.9-5.2,5.3-8.7,11.1-10.4,17.5-1.7,6.4-1.6,12.8.3,19.3,1.9,6.5,5.7,12.5,11.4,18.1,5.6,5.6,11.5,9.3,17.5,11.3,6,2,12.1,2,18.2.1,6.1-1.9,12-5.7,17.7-11.5,2.2-2.2,4-4.7,5.3-7.5,1.3-2.8,2.3-5.6,3.1-8.5.5-1.9.9-3.2,1.3-4,.4-.7.8-1.3,1.1-1.6.7-.7,1.8-.8,3.1-.1,1.3.7,2.4,1.4,3.3,2.2l1.5-1.5-14.8-14.7c-1.8-1.8-3.1-3.3-3.9-4.3Z"/>
        <path class="cls-1" d="M921.1,746.5c-1.5.5-3.5.4-6.2-.2l-68.7-16.4c-.6,1-1.2,2-2,3-.7,1.1-1.5,2-2.1,2.9l37,54.7c2.3,3.4,3.7,6.2,4.2,8.4.5,2.2.4,4-.2,5.3l1.7,1.2c.5-.9,1.1-2,1.8-3.1.8-1.1,1.6-2.4,2.4-3.6,1.2-1.8,2.5-3.5,3.7-5.3,1.2-1.7,2.6-3.5,4-5.3l-1.7-1.2c-1.3,1.7-2.5,3-3.8,4-1.3.9-2.7,1.3-4.1,1.1-1.5-.2-3.1-1.1-5-2.8-1.8-1.7-3.9-4.2-6.2-7.7l-4.4-6.4,13-18.8,17.8,4.6c3.7.9,5.8,2,6.1,3.4.4,1.4-.4,3.6-2.3,6.6l1.7,1.2c.8-1.5,2.1-3.4,3.7-5.8,1.6-2.4,3.3-4.9,5.2-7.6,1.6-2.4,3.3-4.7,4.9-7,1.6-2.3,3.1-4.3,4.4-6l-1.7-1.2c-.6.8-1.7,1.4-3.1,1.9ZM870.2,773.3l-17.2-25.2,29.3,7.6-12.1,17.5Z"/>
        <path class="cls-1" d="M946.9,695.3c-1.1,1.3-2.4,1.9-3.9,1.8-1.5,0-3.6-.7-6.1-1.9l-54.5-25.4,1-2.2c1.4-2.9,3.2-5.2,5.5-6.7,2.3-1.6,5.4-2.4,9.2-2.5,3.8-.1,8.7.6,14.5,2l1-2.2c-.9-.4-2-.8-3.3-1.3-1.3-.5-2.7-1.1-4-1.8-1.6-.7-3.9-1.9-6.8-3.3-2.9-1.5-6-3.1-9.1-4.9-1.2,2.8-2.6,6-4.2,9.5-1.6,3.5-3.2,7-4.8,10.5-1.6,3.5-3.1,6.6-4.4,9.5-1.3,2.8-2.8,5.9-4.4,9.4-1.6,3.5-3.3,7-5,10.4-1.7,3.4-3.2,6.6-4.7,9.5,3.4,1.3,6.6,2.5,9.6,3.8,3,1.3,5.3,2.3,6.9,3.1,1.4.7,2.7,1.3,4,1.9,1.3.6,2.3,1.2,3.1,1.7l1-2.2c-4.9-3.7-8.5-7-10.9-9.9-2.4-3-3.7-5.8-4-8.6-.3-2.8.2-5.6,1.6-8.5l1-2.1,54.5,25.4c2.5,1.2,4.3,2.3,5.4,3.4,1,1.1,1.4,2.5,1.1,4.1-.3,1.7-1,3.9-2.3,6.8l1.9.9c.8-1.9,1.9-4.5,3.3-7.6,1.4-3.1,2.9-6.5,4.5-10,1.7-3.6,3.3-7,4.9-10.2,1.6-3.2,2.9-5.8,3.9-7.8l-1.9-.9c-1.4,2.8-2.6,4.8-3.7,6.1Z"/>
        <path class="cls-1" d="M974.3,608.1c-1.8-6.3-5.2-11.6-10.1-16.2-4.9-4.5-11.2-7.8-18.8-9.7-7.8-2-14.8-2.2-21.1-.6-6.2,1.6-11.5,4.7-15.8,9.4-4.3,4.7-7.4,10.6-9.2,17.8-1.8,7.1-1.8,13.7,0,19.9,1.8,6.2,5.2,11.6,10.1,16.2,4.9,4.6,11.2,7.8,18.8,9.7,7.7,2,14.8,2.2,21,.6,6.3-1.6,11.6-4.7,15.9-9.4,4.3-4.7,7.4-10.6,9.2-17.8,1.8-7.1,1.8-13.7,0-20ZM972.6,627.2c-.9,3.6-3.2,6.5-6.8,8.7-3.6,2.2-8.4,3.5-14.1,3.9-5.8.4-12.3-.4-19.5-2.2-7.1-1.8-13.1-4.2-18.1-7.1-5-2.9-8.6-6.2-11-9.8-2.3-3.6-3-7.3-2-11.1.9-3.6,3.2-6.5,6.9-8.7,3.6-2.2,8.3-3.5,14.1-3.9,5.7-.4,12.3.4,19.5,2.2,7,1.8,13,4.1,18,7.1,5,2.9,8.7,6.2,11,9.8,2.3,3.6,3,7.3,2,11.1Z"/>
      </g>
    </g>
  </g>
</svg>