<?xml version="1.0" encoding="utf-8"?>
<!-- Generator: Adobe Illustrator 28.1.0, SVG Export Plug-In . SVG Version: 6.00 Build 0)  -->
<svg version="1.1" id="Capa_1" xmlns="http://www.w3.org/2000/svg" xmlns:xlink="http://www.w3.org/1999/xlink" x="0px" y="0px"
	 viewBox="0 0 247.1 75.4" style="enable-background:new 0 0 247.1 75.4;" xml:space="preserve">
<style type="text/css">
	.st0{fill:#F4EB2C;}
</style>
<g>
	<path class="st0" d="M34.4,28.8h1.5v13.8c0,3.3-1.4,4.9-4.1,4.9c-1.1,0-2-0.3-2.9-0.8c-0.9-0.5-1.7-1.3-2.4-2.3l-2.8,3.4
		c0.9,1.3,2.1,2.2,3.5,2.9c1.4,0.7,3,1,4.7,1c3,0,5.2-0.8,6.7-2.3c1.5-1.6,2.3-3.9,2.3-7.1V24.6H30.1C30.1,26.9,32,28.8,34.4,28.8z"
		/>
	<path class="st0" d="M74.8,26.2c-2.2-1.1-4.7-1.7-7.6-1.7H55.5v26.8h11.7c2.9,0,5.4-0.6,7.6-1.7C77,48.6,78.7,47,80,45
		c1.2-2,1.8-4.4,1.8-7s-0.6-5-1.8-7C78.7,28.9,77,27.3,74.8,26.2z M75.6,42.8c-0.8,1.4-2,2.4-3.4,3.2c-1.5,0.8-3.2,1.1-5.2,1.1h-6.5
		V28.8h6.5c2,0,3.8,0.4,5.2,1.1c1.5,0.8,2.6,1.8,3.4,3.2c0.8,1.4,1.2,3,1.2,4.9C76.8,39.8,76.4,41.4,75.6,42.8z"/>
	<path class="st0" d="M110.4,26.7c-1-0.9-2.1-1.7-3.5-2.2c-1.3-0.5-2.8-0.8-4.3-0.8c-1.6,0-3,0.3-4.4,0.8c-1.3,0.5-2.5,1.3-3.5,2.2
		c-1,0.9-1.8,2.1-2.3,3.3c-0.5,1.3-0.8,2.7-0.8,4.2c0,1.5,0.3,2.9,0.8,4.2c0.5,1.3,1.3,2.4,2.3,3.3c1,0.9,2.2,1.7,3.5,2.2
		c1.3,0.5,2.8,0.8,4.4,0.8c1.6,0,3-0.3,4.3-0.8c1.3-0.5,2.5-1.3,3.5-2.2c1-0.9,1.7-2.1,2.3-3.3c0.5-1.3,0.8-2.7,0.8-4.2
		c0-1.5-0.3-2.9-0.8-4.2C112.1,28.7,111.4,27.6,110.4,26.7z M108.4,36.8c-0.3,0.8-0.8,1.5-1.3,2c-0.6,0.6-1.2,1-2,1.3
		c-0.8,0.3-1.6,0.5-2.5,0.5c-0.9,0-1.8-0.2-2.6-0.5c-0.8-0.3-1.5-0.8-2-1.3c-0.6-0.6-1-1.3-1.3-2c-0.3-0.8-0.5-1.6-0.5-2.5
		c0-0.9,0.2-1.8,0.5-2.6c0.3-0.8,0.8-1.4,1.3-2c0.6-0.6,1.2-1,2-1.3c0.8-0.3,1.6-0.5,2.6-0.5c0.9,0,1.8,0.2,2.5,0.5
		c0.8,0.3,1.4,0.8,2,1.3c0.6,0.6,1,1.2,1.3,2c0.3,0.8,0.5,1.6,0.5,2.6C108.9,35.1,108.8,36,108.4,36.8z"/>
	<path class="st0" d="M150.4,24.6l-10.5,17.8l-10.6-17.8h-4.1v26.8c2.6,0,4.7-2.1,4.7-4.7V33.8l8.8,14.5h2.3l8.8-14.8v13
		c0,2.6,2.1,4.7,4.7,4.7h0l-0.1-26.8H150.4z"/>
	<path class="st0" d="M185.3,47.1h-10.9v-7.3h8.8c2.3,0,4.1-1.8,4.1-4.1h-12.9v-6.9h10.4c2.3,0,4.2-1.9,4.2-4.2h-19.6v26.8h20.1
		C189.5,49,187.6,47.1,185.3,47.1z"/>
	<path class="st0" d="M219.4,47.1h-12.1L223,27.9v-3.3h-22.1c0,2.3,1.9,4.2,4.2,4.2h11.3L200.7,48v3.3h22.9
		C223.6,49,221.7,47.1,219.4,47.1z"/>
	<path class="st0" d="M92.1,50.8h17.3c2,0,3.6-1.6,3.6-3.6H95.7C93.7,47.1,92.1,48.8,92.1,50.8z"/>
</g>
</svg>
