<?xml version="1.0" encoding="UTF-8"?>
<svg xmlns="http://www.w3.org/2000/svg" version="1.1" viewBox="0 0 1080 1080">
  <defs>
    <style>
      .cls-1 {
        fill: #494949;
      }
    </style>
  </defs>
  <!-- Generator: Adobe Illustrator 28.6.0, SVG Export Plug-In . SVG Version: 1.2.0 Build 709)  -->
  <g>
    <g id="Capa_1">
      <g>
        <path class="cls-1" d="M423,465c-2.9-42.5-37.6-76.9-80.2-79.4-26-1.5-49.7,8.5-66.4,25.5-15.1,15.4-24.5,36.6-24.5,60v146.8c0,6.8,5.5,12.2,12.2,12.2s12.2-5.5,12.2-12.2v-86.9c15.6,15.9,37.2,25.7,61.2,25.7,49.3,0,88.9-41.7,85.4-91.8ZM337.5,532.3c-33.8,0-61.2-27.4-61.2-61.2s27.4-61.2,61.2-61.2,61.2,27.4,61.2,61.2-27.4,61.2-61.2,61.2Z"/>
        <path class="cls-1" d="M912.7,397.7c-10.2-7.7-23-12.2-36.7-12.2s-26.5,4.6-36.7,12.2c-4.6,3.5-8.8,7.6-12.2,12.2-3.5-4.6-7.6-8.8-12.2-12.2-10.2-7.7-23-12.2-36.7-12.2s-26.5,4.6-36.7,12.2c-14.9,11.2-24.5,28.9-24.5,48.9v171.3c0,6.8,5.5,12.2,12.2,12.2s12.2-5.5,12.2-12.2v-170.3c0-19.8,15.2-36.8,34.9-37.7,21.1-1,38.5,15.8,38.5,36.7v72.9c0,6.4,4.7,12.1,11,12.7,7.3.7,13.4-5,13.4-12.2v-72.4c0-19.8,15.2-36.8,34.9-37.7,21.1-1,38.5,15.8,38.5,36.7v171.3c0,6.8,5.5,12.2,12.2,12.2s12.2-5.5,12.2-12.2v-171.3c0-20-9.6-37.8-24.5-48.9Z"/>
        <path class="cls-1" d="M973.8,434.4c-6.8,0-12.2,5.5-12.2,12.2v171.3c0,6.8,5.5,12.2,12.2,12.2s12.2-5.5,12.2-12.2v-171.3c0-6.8-5.5-12.2-12.2-12.2Z"/>
        <circle class="cls-1" cx="973.8" cy="397.7" r="12.2" transform="translate(233.8 1145.2) rotate(-67.5)"/>
        <path class="cls-1" d="M197.6,507.8c-10.6-7-23.2-11.1-36.9-11.1s-30.5-9-37.9-22.2c-3.5-6.2-5.5-13.5-5.5-21.1s0-.8,0-1.1c.6-23.4,19.8-42.3,43.4-42.3s37.8,14.3,42.3,33.6c1.2,5.1,5.6,8.7,10.8,8.7h1.4c7.1,0,12.3-6.5,10.9-13.5-6.5-31.6-35.4-55.1-69.4-53.1-32.7,1.9-59.5,27.9-62.4,60.5-.9,10,.4,19.6,3.5,28.3,4.9,13.8,14.1,25.5,26,33.4,10.6,7,23.2,11.1,36.9,11.1s30.8,9,38.5,22.2c4,6.8,6.2,14.8,6,23.3-.5,24.1-21,43.8-45.1,43.5-21.2-.3-38.9-15.5-43-35.6-1.1-5.2-5.6-8.9-10.9-8.9s-12.3,6.5-10.9,13.5c6.5,31.6,35.4,55.1,69.4,53.1,32.7-1.9,59.5-27.9,62.4-60.5.9-10-.4-19.6-3.5-28.3-4.9-13.8-14.1-25.5-26-33.4Z"/>
        <path class="cls-1" d="M611.8,387.7l-1.3.3c-28,5.7-56.3,5.7-84.3-.2-18-3.7-36.5,2.2-48.3,15.5-18,20.3-28.3,57.6-29.2,105.5-14.7,2.1-26,14.7-26,29.9s13.6,30.2,30.2,30.2,30.2-13.6,30.2-30.2-11.2-27.8-25.8-29.9c.9-45.2,10.6-81.3,27-99.8,9.8-11,25.1-15.9,40.1-12.8,29.1,6.1,58.6,6.1,87.7.2l1.3-.3c14.9-3,30.2,1.9,39.9,12.8,17.2,19.4,27.1,58.1,27.1,106.4s-31.1,104.8-75.6,105.3c-10.8,0-19-2.9-24.5-9.1-9-10.2-8.4-26.4-8-31.1l70.3-70.3c16.6-16.6,16.6-43.7,0-60.3-15.7-15.7-40.8-16.6-57.5-2.5l-4.4-4.4-7.5,7.5c-2,2-3.1,4.7-3.1,7.5s1.1,5.5,3.1,7.5c2,2,4.7,3.1,7.5,3.1s5.5-1.1,7.5-3.1l7.5-7.5-4.6-4.6c13.3-10.7,32.9-9.8,45.3,2.5,13.3,13.3,13.3,34.8,0,48.1l-68.4,68.4-68.4-68.4c-13.3-13.3-13.3-34.8,0-48.1,12.2-12.2,31.6-13.2,44.9-2.8l-4.7,4.7,7.5,7.5c2,2,4.7,3.1,7.5,3.1s5.5-1.1,7.5-3.1c4.2-4.2,4.2-10.9,0-15.1l-7.5-7.5-4.3,4.3c-16.7-13.7-41.5-12.7-57.1,2.9-16.6,16.6-16.6,43.7,0,60.3l70.1,70.1c-.5,6.4-.8,24.5,10.1,36.9,7,8,17.2,12.1,30.3,12.1.2,0,.5,0,.7,0,49.5-.6,84.1-47.4,84.1-113.9s-10.4-90.9-29.3-112.1c-11.8-13.2-30.2-19.2-48.1-15.5ZM474.6,538.7c0,11.9-9.7,21.6-21.6,21.6s-21.6-9.7-21.6-21.6,9.7-21.6,21.6-21.6,21.6,9.7,21.6,21.6ZM582.4,459.4c-.8.8-2.1.8-2.9,0s-.8-2.1,0-2.9l1.5-1.5,2.9,2.9-1.5,1.5ZM555.2,454.8l1.5,1.5c.8.8.8,2.1,0,2.9-.8.8-2.1.8-2.9,0l-1.5-1.5,2.9-2.9Z"/>
        <path class="cls-1" d="M455,536.6c-1.2-1.9-4-1.9-5.2,0l-6.1,9.8c-1.4,2.3.7,5.2,3.3,4.5l4.6-1.2c.5-.1,1-.1,1.5,0l4.6,1.2c2.6.7,4.8-2.2,3.3-4.5l-6.1-9.8Z"/>
        <path class="cls-1" d="M449.6,534.4c1.6-.4,2.4-2.9,1.7-5.6s-2.5-4.6-4.1-4.3c-1.6.4-2.4,2.9-1.7,5.6s2.5,4.6,4.1,4.3Z"/>
        <path class="cls-1" d="M455.4,534.7c1.6.5,3.5-1.3,4.3-4,.8-2.7.2-5.2-1.4-5.7-1.6-.5-3.5,1.3-4.3,4-.8,2.7-.2,5.2,1.4,5.7Z"/>
        <path class="cls-1" d="M460.3,540.5c1.4.9,3.7-.3,5.3-2.6,1.5-2.3,1.7-5,.3-5.9-1.4-.9-3.7.3-5.3,2.6-1.5,2.3-1.7,5-.3,5.9Z"/>
        <path class="cls-1" d="M444.7,541.1c1.4-.8,1.4-3.5,0-5.9-1.4-2.4-3.7-3.7-5.1-2.9-1.4.8-1.4,3.5,0,5.9,1.4,2.4,3.7,3.7,5.1,2.9Z"/>
        <path class="cls-1" d="M463.5,658.8c-.6,0-1,.2-1.4.6-.4.4-.5.9-.5,1.5v20c0,1.8-.4,3.5-1.3,4.9-.9,1.4-2,2.6-3.5,3.4-1.4.8-3,1.2-4.8,1.2s-3.2-.4-4.6-1.2c-1.4-.8-2.6-2-3.4-3.4-.8-1.4-1.3-3.1-1.3-4.9v-20c0-.6-.2-1.1-.6-1.5-.4-.4-.9-.6-1.4-.6s-1.2.2-1.6.6c-.4.4-.6.9-.6,1.5v20c0,2.6.6,4.9,1.8,6.9,1.2,2,2.8,3.7,4.8,4.9,2,1.2,4.3,1.8,6.9,1.8s4.9-.6,6.9-1.8c2-1.2,3.6-2.8,4.8-4.9,1.2-2,1.8-4.4,1.8-6.9v-20c0-.6-.2-1.1-.6-1.5-.4-.4-.9-.6-1.5-.6Z"/>
        <path class="cls-1" d="M496.9,668.8c-1.3-.9-3.1-1.4-5.4-1.4s-2.4.2-3.5.6c-1.1.4-2.1,1-3,1.7-.9.7-1.7,1.5-2.3,2.4,0,0,0,.2-.2.2v-2.2c0-.6-.2-1.1-.6-1.5-.4-.4-.9-.6-1.5-.6s-1,.2-1.4.6-.6.9-.6,1.5v21.9c0,.6.2,1.1.6,1.5.4.4.9.6,1.4.6s1-.2,1.4-.6c.4-.4.6-.9.6-1.5v-14c0-1.3.4-2.4,1.1-3.5s1.6-1.9,2.8-2.5c1.2-.6,2.5-.9,3.9-.9s2.7.3,3.6.9c.9.6,1.6,1.5,1.9,2.5.4,1,.6,2.2.6,3.5v14c0,.6.2,1.1.6,1.5.4.4.9.6,1.5.6s1-.2,1.4-.6c.4-.4.6-.9.6-1.5v-14.1c0-2-.3-3.8-.8-5.3-.6-1.6-1.5-2.8-2.8-3.8Z"/>
        <path class="cls-1" d="M514.9,659.4c-.8,0-1.4.2-1.9.5-.4.3-.7.9-.7,1.6v.7c0,.7.2,1.2.6,1.6s1,.5,1.9.5,1.4-.2,1.8-.5c.4-.3.6-.9.6-1.6v-.7c0-.7-.2-1.2-.6-1.6-.4-.3-1-.5-1.8-.5Z"/>
        <path class="cls-1" d="M514.9,667.6c-.6,0-1.1.2-1.5.6-.4.4-.6.9-.6,1.5v22.3c0,.6.2,1.1.6,1.5.4.4.9.6,1.5.6s1-.2,1.4-.6c.4-.4.6-.9.6-1.5v-22.3c0-.6-.2-1.1-.6-1.5-.4-.4-.9-.6-1.4-.6Z"/>
        <path class="cls-1" d="M543.5,657.9c-.5-.3-1-.6-1.6-.7-.6-.2-1.2-.2-1.8-.2-2.4,0-4.4.7-5.8,2-1.4,1.3-2.1,3.1-2.1,5.3v4.2h-3.4c-.5,0-1,.2-1.4.5-.4.3-.6.8-.6,1.4s.2,1,.6,1.3c.4.4.8.5,1.4.5h3.4v19.8c0,.6.2,1.1.6,1.5.4.4.9.6,1.5.6s1-.2,1.4-.6c.4-.4.6-.9.6-1.5v-19.8h5.2c.5,0,1-.2,1.4-.5.4-.4.6-.8.6-1.3s-.2-1-.6-1.3c-.4-.4-.8-.5-1.4-.5h-5.2v-4.2c0-.7.1-1.3.3-1.8.2-.6.6-1,1.1-1.3.5-.3,1.1-.5,1.9-.5s1.1,0,1.7.3c.5.2,1,.3,1.3.3.5,0,.9-.2,1.2-.5.3-.4.5-.8.5-1.3s-.2-1-.7-1.3Z"/>
        <path class="cls-1" d="M570.2,669.2c-2-1.2-4.2-1.8-6.6-1.8s-4.7.6-6.6,1.8c-2,1.2-3.5,2.8-4.7,4.8-1.2,2-1.7,4.4-1.7,7s.6,4.9,1.7,7c1.2,2,2.7,3.7,4.7,4.8,2,1.2,4.2,1.8,6.6,1.8s4.7-.6,6.6-1.8c2-1.2,3.5-2.8,4.7-4.8,1.2-2,1.7-4.4,1.7-7s-.6-4.9-1.7-7c-1.2-2-2.7-3.7-4.7-4.8ZM571.3,686.1c-.8,1.5-1.9,2.6-3.2,3.5-1.4.9-2.9,1.3-4.6,1.3s-3.2-.4-4.6-1.3c-1.4-.9-2.4-2-3.2-3.5-.8-1.5-1.2-3.2-1.2-5.1s.4-3.6,1.2-5.1c.8-1.5,1.9-2.6,3.2-3.5,1.4-.9,2.9-1.3,4.6-1.3s3.2.4,4.6,1.3c1.4.9,2.4,2,3.2,3.5.8,1.5,1.2,3.2,1.2,5.1s-.4,3.6-1.2,5.1Z"/>
        <path class="cls-1" d="M602.4,667.9c-.6-.4-1.3-.5-2-.5-1.2,0-2.4.2-3.4.7-1,.5-2,1.1-2.8,1.9s-1.5,1.7-2,2.7c-.2.4-.3.7-.5,1.1v-3.6c0-.6-.2-1.1-.6-1.5-.4-.4-.9-.6-1.5-.6s-1,.2-1.4.6-.6.9-.6,1.5v21.9c0,.6.2,1.1.6,1.5.4.4.9.6,1.4.6s1-.2,1.4-.6c.4-.4.6-.9.6-1.5v-12.2c0-1.2.2-2.3.6-3.4s1-2,1.7-2.8c.7-.8,1.4-1.5,2.3-1.9.8-.5,1.7-.7,2.5-.7s1.1.1,1.5.3c.4.2.8.3,1.3.3s.9-.2,1.3-.5c.4-.4.6-.9.6-1.6s-.3-1.1-.9-1.5Z"/>
        <path class="cls-1" d="M647.9,669.1c-1.3-1-3-1.4-5.2-1.4s-2.7.3-4,.9c-1.3.6-2.4,1.3-3.4,2.2-.9.8-1.6,1.7-2,2.5-.5-1.6-1.4-2.9-2.5-3.8-1.4-1.2-3.3-1.7-5.6-1.7s-2.3.2-3.4.7c-1.1.4-2,1-2.9,1.8-.8.7-1.5,1.5-2.1,2.3v-2.3c0-.6-.2-1.1-.6-1.5-.4-.4-.9-.6-1.5-.6s-1,.2-1.4.6-.6.9-.6,1.5v21.9c0,.6.2,1.1.6,1.5.4.4.9.6,1.4.6s1-.2,1.4-.6c.4-.4.6-.9.6-1.5v-13.8c0-1.2.3-2.4,1-3.4.7-1,1.6-1.9,2.7-2.5,1.1-.6,2.3-.9,3.7-.9s2.6.3,3.4.9c.8.6,1.4,1.5,1.8,2.5.4,1,.6,2.2.6,3.4v13.8c0,.6.2,1.1.6,1.5.4.4.9.6,1.5.6s1.1-.2,1.5-.6c.4-.4.6-.9.6-1.5v-13.6c0-1.3.3-2.4,1-3.5.7-1.1,1.6-1.9,2.7-2.5,1.1-.6,2.4-1,3.7-1s2.6.3,3.5,1c.9.6,1.5,1.5,1.9,2.5.4,1.1.6,2.2.6,3.5v13.6c0,.6.2,1.1.6,1.5.4.4.9.6,1.4.6s1.1-.2,1.5-.6c.4-.4.6-.9.6-1.5v-13.7c0-2-.3-3.8-.8-5.4-.6-1.6-1.5-2.9-2.7-3.8Z"/>
        <path class="cls-1" d="M679.4,681.6c-.8-.6-1.7-1-2.7-1.4-1-.4-2-.7-3.1-.9-1.2-.3-2.2-.7-3.2-1-1-.4-1.7-.8-2.3-1.4s-.9-1.3-.9-2.2c0-1,.3-1.7.8-2.3.5-.5,1.2-.9,1.9-1.2.8-.3,1.5-.4,2.3-.4,1.3,0,2.4.2,3.5.7s2,1.1,2.7,2c.3.3.7.5,1.1.5.5,0,.9-.1,1.2-.4.5-.4.7-.9.7-1.4,0-.5-.2-.9-.5-1.3-.7-.9-1.6-1.6-2.6-2.1-1-.5-2-.9-3-1.1-1-.2-2-.3-2.9-.3-1.7,0-3.2.3-4.6.9-1.4.6-2.5,1.5-3.3,2.6-.8,1.1-1.2,2.4-1.2,3.9s.3,2.4.8,3.3c.5.9,1.2,1.6,2.1,2.2.9.6,1.8,1.1,2.9,1.4,1.1.4,2.2.7,3.3,1,1,.3,2,.6,2.9.9s1.7.8,2.2,1.4.9,1.3.9,2.2-.3,1.8-.8,2.3c-.6.6-1.2,1-2.1,1.2-.8.2-1.6.4-2.4.4-1.7,0-3.2-.3-4.4-1s-2.3-1.5-3.2-2.6c-.4-.4-.8-.6-1.2-.7-.5,0-.9,0-1.2.3-.5.4-.8.8-.8,1.3,0,.5.1.9.4,1.4,1.3,1.7,2.9,2.9,4.7,3.6,1.8.7,3.6,1,5.5,1s3.2-.3,4.6-.9c1.4-.6,2.6-1.4,3.4-2.6.9-1.1,1.3-2.5,1.3-4s-.2-2.5-.7-3.3c-.5-.9-1.1-1.6-1.9-2.2Z"/>
      </g>
    </g>
  </g>
</svg>