<?xml version="1.0" encoding="UTF-8"?>
<svg xmlns="http://www.w3.org/2000/svg" version="1.1" viewBox="0 0 1080 1080">
  <defs>
    <style>
      .cls-1 {
        fill: #494949;
      }
    </style>
  </defs>
  <!-- Generator: Adobe Illustrator 28.6.0, SVG Export Plug-In . SVG Version: 1.2.0 Build 709)  -->
  <g>
    <g id="Capa_1">
      <g>
        <path class="cls-1" d="M645.5,656.9c-66.3-32.7-154.4-134.7-172.9-222.3-11.8-55.9-24-71-30.2-75-2.5-1.6-4-1.3-4-1.3l-1.4-4.6c.5-.2,3.2-.9,7.2,1.4,8.6,4.9,21.3,22.5,33.1,78.6,18.3,86.3,105,186.8,170.3,219l-2.1,4.3Z"/>
        <path class="cls-1" d="M676.1,634c-23.7-4.9-33.2-26.4-34.2-45-.5-9.2-1.5-55.3,26.9-64.9,15.8-5.3,37-13.6,38.6-23.6,1.1-6.9-6.4-16.4-10.9-22.1-1.3-1.7-2.4-3.1-3.1-4.1-3.3-5-.8-10,.9-13.6.4-.9.8-1.7,1.2-2.5.8-2,1.2-3-8.8-7.4l-4.2-1.8,3.9-2.4c6.1-3.8,9.6-8.9,8.8-12.9-.2-1.1-3.2-2.5-5.4-3.5-4.1-1.9-9.2-4.3-9.6-9.4-.3-4.4,2.8-8.3,5.8-12.1,2.3-2.9,4.7-6,4.6-8.2-.2-3.9-1.6-6.4-19.1-6.4-20.9-.8-31.2-6.8-38.5-12.6l-2-1.6,1.7-1.9c4.3-4.9,5.9-9,6.5-12.2-3,3.5-5.5,5.7-7.9,7-1.1.6-2.9,1.4-4.8.6-2.7-1-4.3-4.4-7.4-13.2-9-26.2-40.2-28.1-40.5-28.1h-1.9c0,0-.4-2-.4-2,0,0-1.3-6.7-6.6-10.3-3.4-2.3-7.7-2.8-12.9-1.8l-1-4.7c6.5-1.4,12.1-.5,16.6,2.5,5.1,3.5,7.3,8.8,8.2,11.6,7.3.9,34.3,5.8,43,31.2.9,2.6,3.3,9.5,4.6,10.3,0,0,.3,0,.8-.4,2.7-1.5,6.1-5,10.4-10.7l2.8-3.8,1.4,4.5c.9,3,2.1,10.7-5.6,20.5,6.6,4.8,16,9.4,33.6,10.1h0c15.4,0,23.3,1.7,23.8,11,.2,4-2.7,7.8-5.6,11.4-2.4,3.1-4.9,6.3-4.7,8.8.2,2.2,3.6,3.8,6.8,5.4,3.6,1.7,7.4,3.4,8.1,7,1,5.1-1.8,10.8-7.5,15.4,6.4,3.1,9.7,6,7.5,11.8-.4.9-.8,1.9-1.3,2.9-1.9,3.8-2.9,6.3-1.2,8.8.6,1,1.6,2.2,2.8,3.8,5.3,6.7,13.3,16.8,11.9,25.8-1.5,9.8-14,18.1-41.8,27.4-19.4,6.6-24.8,36.5-23.6,60.1.9,16.8,9.3,36.2,30.4,40.5l-1,4.7Z"/>
        <path class="cls-1" d="M575.7,478.3c-19,0-37.2-10.4-46.5-27.8-9.6-18.1-7.9-40,4.2-56.4l-32.4-77.4c-2.9-6.9.4-14.8,7.2-17.7l24.5-10.3c3.3-1.4,7-1.4,10.3,0,3.3,1.4,5.9,4,7.3,7.3l32.4,77.4c18.4,2.6,34.2,14.7,41.4,31.8,5.8,13.8,5.4,29.5-1,43-6.5,13.7-18.2,23.6-32.9,28-4.9,1.4-9.8,2.1-14.7,2.1M538,292.5c-1.1,0-2.3.2-3.4.7l-24.5,10.3c-2.1.9-3.8,2.6-4.7,4.7-.9,2.2-.9,4.5,0,6.7l33.5,80-.9,1.1c-11.7,14.9-13.5,35.4-4.6,52.2,10.4,19.6,34.3,29.6,55.5,23.4,13.4-3.9,24-13,29.9-25.4,5.8-12.3,6.2-26.5.9-39.1-6.7-16-21.6-27.1-38.9-29.1l-1.4-.2-33.5-80c-.9-2.1-2.6-3.8-4.7-4.7-1.1-.4-2.2-.7-3.3-.7"/>
        <path class="cls-1" d="M531.2,690.7c-66.6,0-128.5-29.9-170.1-82-1.2-1.5-2.4-3-3.5-4.6-1.3-1.6-2.5-3.3-3.7-5-7.1-9.9-13.3-20.5-18.6-31.5-.9-1.9-1.8-3.7-2.6-5.6-.8-1.8-1.6-3.6-2.3-5.4-11-26.3-16.5-54.2-16.5-83.1,0-119.8,97.5-217.2,217.2-217.2s217.2,97.5,217.2,217.2-97.4,217.2-217.2,217.2M531.2,261.1c-117.1,0-212.4,95.3-212.4,212.4s5.4,55.6,16.2,81.3c.7,1.8,1.4,3.5,2.2,5.1.9,2,1.7,3.8,2.6,5.6,5.2,10.7,11.3,21,18.2,30.8,1.1,1.6,2.3,3.2,3.6,4.9,1.2,1.6,2.3,3,3.5,4.5,40.6,50.9,101.2,80.2,166.3,80.2,117.1,0,212.4-95.3,212.4-212.4s-95.3-212.4-212.4-212.4"/>
        <path class="cls-1" d="M439,357.5l-3.5-3.3c1.4-1.5,35.9-36.9,72.9-29.5l-.9,4.7c-34.5-6.9-68.2,27.8-68.5,28.1"/>
        <path class="cls-1" d="M432.1,666.4l-.9-4.8c50.5-9.2,83.8-32.8,83-58.6-.7-22.1-25.5-22-54.1-22-5.5,0-11.1,0-16.6-.1-22.6-.7-23.4-15.8-24.1-26.8-.5-8.3-1.1-12-5-12.9-4.9-1-9.5-3.1-10.2-11.1-.4-4.4,1.4-7.6,3.3-9.7-.3-.2-.6-.4-.9-.6-2.2-1.3-3.4-3.6-3.5-6.3-.1-3.9,2.3-8.5,4.6-10.1.9-.7.9-1.6,0-8.5-.3-2-1.8-2.5-6.4-3.1-4.7-.6-10.6-1.4-12.8-7.2-2.9-7.3,3-11.7,8.8-15.9,3.1-2.3,6.2-4.6,8.8-7.6,11-11.4,11.5-16.9,12.1-23.2,0-.3,0-.6,0-1-11.7-1.8-16-7.9-17.4-10.6l-2.2-4.3,4.8.8c6.7,1.2,11.3,1.4,14,.6.4-.1.6-.2.7-.2,0,0,0-.6-.4-1.8-3.4-11.1-4.1-21.5-2.2-30.8,5.1-24.7,20.5-37.1,21.2-37.6l3,3.8c-.1.1-14.7,11.9-19.5,34.8-1.7,8.5-1,18.1,2.1,28.4.5,1.7,1,3.9,0,5.7-.9,1.6-2.5,2.2-3.6,2.5-2.4.6-5.4.7-9.5.4,2.5,1.7,6.2,3.3,12,3.9l2.5.2-.3,2.5c-.1,1.1-.2,2.1-.3,3.2-.6,6.9-1.2,13.4-13.3,25.9-2.8,3.3-6.3,6-9.5,8.3-6.1,4.6-8.5,6.8-7.1,10.2,1.1,2.9,4.3,3.5,9,4.2,4.4.6,9.8,1.3,10.5,6.8,1,8,1.4,11.1-2,13.5-.8.6-2.7,3.5-2.6,6,0,1.1.4,1.8,1.3,2.4,2.1,1.4,3.1,1.5,3.1,1.5l11-.6-9.9,5.2c-.2.1-4.9,2.7-4.3,7.8.5,4.9,2.3,6,6.5,6.9,7.9,1.7,8.4,9.6,8.8,17.3.6,11.2,1.2,21.7,19.4,22.3,5.4.2,11,.1,16.5.1,28.5,0,58-.2,58.9,26.6.9,28.3-34,53.8-86.9,63.5"/>
        <path class="cls-1" d="M395.1,538.6c-8.8-8.8-23.1-8.8-31.9,0l-9.1,9.1-11.6,11.6c-2.2,2.1-3.8,4.6-4.9,7.2,5.3,10.9,11.4,21.3,18.4,31.1,6.6.7,13.4-1.4,18.4-6.5l11.6-11.6,9.1-9.1c4.3-4.3,6.6-9.9,6.6-16s-2.3-11.7-6.6-16M391.7,567.2l-9.1,9.1-25.1-25.1,9.1-9.1c7-6.9,18.2-6.9,25.2,0,3.3,3.3,5.2,7.8,5.2,12.6s-1.8,9.2-5.2,12.6"/>
        <path class="cls-1" d="M352.1,545c.9,1,.9,2.5,0,3.4-1,.9-2.5.9-3.4,0l-1.1-1.1-8.6,8.6c-1.6,1.5-2.9,3.3-4,5.1-.8-1.7-1.5-3.5-2.2-5.3.8-1.2,1.7-2.2,2.8-3.3l8.6-8.6-1.1-1.1c-.9-.9-.9-2.5,0-3.4s2.5-1,3.4,0l5.6,5.6Z"/>
        <path class="cls-1" d="M394.4,590.5c-.9,1-2.5,1-3.4,0l-1.1-1.1-8.7,8.7c-5.1,5.1-11.5,8.1-18.2,9.1-1.2-1.5-2.3-3-3.5-4.5,6.6-.2,13.2-2.9,18.2-8l8.7-8.7-1.1-1.1c-.9-1-.9-2.5,0-3.4,1-1,2.5-1,3.4,0l5.6,5.6c1,.9,1,2.5,0,3.4"/>
        <path class="cls-1" d="M670.9,638.1c-68.3-26.9-64.4-79.4-62.1-110.8.9-11.6,1.6-21.7-1.8-25.1-1.2-1.2-3-1.6-5.7-1.3-36.3,3.4-39.5-25.9-39.5-26.2l4.8-.5c.1,1,2.9,24.8,34.3,21.9,4-.4,7.3.5,9.5,2.7,5,4.9,4.3,15,3.3,28.9-2.4,32-5.9,80.3,59.1,105.9l-1.8,4.5Z"/>
        <polygon class="cls-1" points="405.5 908.7 405.5 912.4 396.2 912.4 396.2 943 391.7 943 391.7 912.4 382.4 912.4 382.4 908.7 405.5 908.7"/>
        <path class="cls-1" d="M429.9,916.9c1.6.9,2.9,2.2,3.9,3.9.9,1.7,1.4,3.8,1.4,6.3v15.9h-4.4v-15.2c0-2.7-.7-4.7-2-6.2-1.3-1.4-3.2-2.1-5.5-2.1s-4.2.7-5.6,2.2c-1.4,1.5-2.1,3.6-2.1,6.4v14.9h-4.5v-36.3h4.5v13.3c.9-1.4,2.1-2.4,3.7-3.2,1.6-.8,3.3-1.1,5.2-1.1s3.9.4,5.5,1.3"/>
        <path class="cls-1" d="M466.8,931.2h-21.5c.2,2.7,1.1,4.7,2.7,6.2,1.7,1.5,3.7,2.2,6,2.2s3.5-.4,4.8-1.3c1.3-.9,2.2-2.1,2.7-3.6h4.8c-.7,2.6-2.2,4.7-4.3,6.3-2.2,1.6-4.8,2.4-8.1,2.4s-4.8-.6-6.8-1.7c-2-1.1-3.6-2.8-4.7-4.9-1.1-2.1-1.7-4.6-1.7-7.3s.6-5.2,1.7-7.3c1.1-2.1,2.7-3.7,4.7-4.8,2-1.1,4.3-1.7,6.9-1.7s4.8.6,6.8,1.7,3.5,2.6,4.5,4.6c1.1,1.9,1.6,4.1,1.6,6.6s0,1.8-.1,2.7M461.2,923.1c-.8-1.2-1.8-2.2-3.1-2.8-1.3-.6-2.7-1-4.3-1-2.3,0-4.2.7-5.8,2.2-1.6,1.4-2.5,3.4-2.7,6h17c0-1.7-.4-3.2-1.1-4.4"/>
        <path class="cls-1" d="M505.9,925.8c-1.9,1.9-4.9,2.8-8.9,2.8h-6.6v14.3h-4.5v-34.2h11c3.9,0,6.8.9,8.8,2.8,2,1.9,3,4.3,3,7.2s-1,5.2-2.9,7.1M502.5,923.4c1.2-1.1,1.8-2.6,1.8-4.6,0-4.2-2.4-6.3-7.3-6.3h-6.6v12.6h6.6c2.5,0,4.3-.5,5.5-1.6"/>
        <path class="cls-1" d="M519.3,941.7c-2-1.1-3.7-2.8-4.8-4.9-1.2-2.1-1.7-4.6-1.7-7.3s.6-5.2,1.8-7.3,2.8-3.7,4.9-4.9c2.1-1.1,4.4-1.7,6.9-1.7s4.9.6,6.9,1.7c2.1,1.1,3.7,2.7,4.9,4.8,1.2,2.1,1.8,4.5,1.8,7.3s-.6,5.2-1.8,7.3c-1.2,2.1-2.9,3.7-5,4.9-2.1,1.1-4.4,1.7-7,1.7s-4.8-.6-6.8-1.7M530.7,938.3c1.4-.8,2.5-1.9,3.4-3.4.9-1.5,1.3-3.3,1.3-5.5s-.4-4-1.3-5.5c-.9-1.5-2-2.6-3.3-3.4-1.4-.7-2.9-1.1-4.5-1.1s-3.1.4-4.5,1.1c-1.4.7-2.4,1.9-3.3,3.4-.8,1.5-1.2,3.3-1.2,5.5s.4,4,1.2,5.5c.8,1.5,1.9,2.6,3.2,3.4,1.3.7,2.8,1.1,4.4,1.1s3.1-.4,4.5-1.1"/>
        <path class="cls-1" d="M545.8,922.2c1.1-2.1,2.6-3.7,4.6-4.8,1.9-1.1,4.1-1.7,6.6-1.7s4,.5,5.8,1.4c1.8,1,3.2,2.2,4.1,3.8v-14.2h4.5v36.3h-4.5v-5.1c-.9,1.6-2.2,2.9-3.9,4-1.7,1-3.8,1.5-6.1,1.5s-4.6-.6-6.5-1.8c-1.9-1.2-3.5-2.8-4.6-5-1.1-2.1-1.7-4.5-1.7-7.3s.6-5.2,1.7-7.2M565.7,924.2c-.8-1.5-1.9-2.7-3.3-3.5-1.4-.8-2.9-1.2-4.6-1.2s-3.2.4-4.6,1.2c-1.4.8-2.5,1.9-3.3,3.4-.8,1.5-1.2,3.3-1.2,5.3s.4,3.9,1.2,5.4c.8,1.5,1.9,2.7,3.3,3.5,1.4.8,2.9,1.2,4.6,1.2s3.2-.4,4.6-1.2c1.4-.8,2.5-2,3.3-3.5.8-1.5,1.2-3.3,1.2-5.3s-.4-3.8-1.2-5.3"/>
        <path class="cls-1" d="M579,922.2c1.1-2.1,2.7-3.7,4.6-4.8,2-1.1,4.2-1.7,6.8-1.7s6,.8,8.2,2.4c2.1,1.6,3.6,3.8,4.2,6.7h-4.8c-.5-1.6-1.4-2.9-2.7-3.9-1.3-.9-3-1.4-4.9-1.4s-4.6.9-6.2,2.6c-1.6,1.8-2.4,4.2-2.4,7.4s.8,5.7,2.4,7.5c1.6,1.8,3.6,2.7,6.2,2.7s3.6-.5,4.9-1.4c1.3-.9,2.2-2.2,2.7-3.9h4.8c-.7,2.7-2.2,5-4.3,6.6-2.2,1.7-4.9,2.5-8.1,2.5s-4.8-.6-6.8-1.7c-2-1.1-3.5-2.8-4.6-4.9-1.1-2.1-1.7-4.5-1.7-7.4s.6-5.2,1.7-7.3"/>
        <path class="cls-1" d="M608.8,922.2c1.1-2.1,2.6-3.7,4.6-4.8,1.9-1.1,4.1-1.7,6.5-1.7s4.4.5,6.1,1.5c1.7,1,3,2.3,3.9,3.8v-4.9h4.5v26.9h-4.5v-5c-.9,1.6-2.2,2.9-4,3.9-1.8,1-3.8,1.5-6.1,1.5s-4.6-.6-6.5-1.8c-1.9-1.2-3.5-2.8-4.6-5-1.1-2.1-1.7-4.5-1.7-7.3s.6-5.2,1.7-7.2M628.7,924.2c-.8-1.5-1.9-2.7-3.3-3.5-1.4-.8-2.9-1.2-4.6-1.2s-3.2.4-4.6,1.2c-1.4.8-2.5,1.9-3.3,3.4-.8,1.5-1.2,3.3-1.2,5.3s.4,3.9,1.2,5.4c.8,1.5,1.9,2.7,3.3,3.5,1.4.8,2.9,1.2,4.6,1.2s3.2-.4,4.6-1.2c1.4-.8,2.5-2,3.3-3.5.8-1.5,1.2-3.3,1.2-5.3s-.4-3.8-1.2-5.3"/>
        <path class="cls-1" d="M646,942.3c-1.6-.7-2.9-1.7-3.9-2.9-1-1.3-1.5-2.7-1.6-4.3h4.6c.1,1.3.8,2.4,1.9,3.3,1.1.9,2.6,1.3,4.4,1.3s3-.4,4-1.1c1-.8,1.5-1.7,1.5-2.8s-.5-2.1-1.6-2.6c-1-.6-2.7-1.1-4.9-1.7-2-.5-3.6-1.1-4.9-1.6-1.3-.5-2.3-1.3-3.2-2.4-.9-1.1-1.3-2.5-1.3-4.2s.4-2.6,1.2-3.8c.8-1.1,2-2.1,3.5-2.7,1.5-.7,3.2-1,5.2-1,3,0,5.4.8,7.2,2.3,1.8,1.5,2.8,3.6,2.9,6.2h-4.5c0-1.4-.7-2.5-1.7-3.4-1-.8-2.4-1.3-4.1-1.3s-2.9.3-3.8,1c-.9.7-1.4,1.6-1.4,2.7s.3,1.6.9,2.2c.6.6,1.3,1,2.2,1.4.9.3,2.1.7,3.6,1.2,1.9.5,3.5,1,4.7,1.5,1.2.5,2.2,1.3,3.1,2.3.9,1,1.3,2.3,1.4,4,0,1.5-.4,2.8-1.2,4s-2,2.1-3.5,2.8c-1.5.7-3.2,1-5.1,1s-3.9-.4-5.5-1.1"/>
        <path class="cls-1" d="M673.1,919.7v15.9c0,1.3.3,2.2.8,2.8.6.5,1.5.8,2.9.8h3.3v3.8h-4c-2.5,0-4.4-.6-5.6-1.7-1.2-1.1-1.9-3-1.9-5.6v-15.9h-3.5v-3.7h3.5v-6.8h4.5v6.8h7v3.7h-7Z"/>
        <path class="cls-1" d="M447.6,706.8l19.4,10c2.2,1.1,3,3.8,1.9,6h0c-1.1,2.3-3.8,3.2-6,2.1l-5.3-2.7-22.8,44.3c-1.1,2.2-3.8,3-6,1.9l-.9-.5c-2.2-1.1-3-3.8-1.9-6l22.8-44.3-5.3-2.7c-2.2-1.1-3-3.8-1.9-6h0c1.1-2.3,3.8-3.2,6-2.1"/>
        <path class="cls-1" d="M485.7,788.5l-.9-.2c-2.2-.6-3.6-2.6-3.3-4.8l.8-7.7-11.8-3.1-3,7.1c-.9,2-3.1,3.1-5.3,2.6-2.7-.7-4.1-3.6-3-6.1l20.7-47.2c1.7-3.8,5.9-5.9,10-4.8,4.1,1.1,6.8,4.9,6.4,9.1l-4.9,51.3c-.3,2.7-2.9,4.6-5.6,3.9M473.9,764.7l9.3,2.4,3.5-32.2h-.2s-12.6,29.8-12.6,29.8Z"/>
        <path class="cls-1" d="M519.4,729.2h1.1c2.5,0,4.4,2.1,4.3,4.6l-1.1,49.8,11.9.3c2.5,0,4.4,2.1,4.3,4.5v.2c0,2.5-2.1,4.4-4.5,4.3l-16.6-.4c-2.9,0-5.2-2.5-5.2-5.4l1.2-53.6c0-2.5,2.1-4.4,4.5-4.3"/>
        <path class="cls-1" d="M569.9,763.5l-1.8,6.3,3.1,14.7c.5,2.4-1,4.8-3.4,5.3l-1,.2c-2.4.5-4.8-1-5.3-3.4l-11.4-53.2c-.5-2.4,1-4.8,3.4-5.3l1-.2c2.4-.5,4.8,1,5.3,3.4l4.8,22.4h.2s6.2-26.8,6.2-26.8c.4-1.7,1.7-3,3.4-3.3,3.2-.7,6,2.2,5.2,5.4l-5.9,23.6,17.3,26c1.7,2.6.3,6.1-2.8,6.8h-.6c-1.8.5-3.6-.2-4.7-1.8l-13.1-20.1Z"/>
        <path class="cls-1" d="M600,712.6c7.2-3.5,13.2-2,17.6,3.7.2.3.6.9,1,1.5,1.4,2.4.4,5.4-2,6.6-2.2,1.1-4.9.3-6.1-1.8-.4-.6-.7-1.1-.9-1.3-1.6-1.6-3.4-1.7-5.4-.7-2.8,1.4-3.7,3.7-1.7,7.8,2,4.1,5.3,6.4,13.7,8.6,10.7,2.9,15.3,6.5,18.5,13,4.4,9.1,2.4,16.5-6.3,20.8-8.8,4.3-15.9,1.3-20.3-7.8-.9-1.9-.1-4.3,1.8-5.2l1.5-.7c1.9-.9,4.3-.1,5.2,1.8l.3.6c2,4.1,4.5,4.7,7.3,3.3,2.8-1.4,3.9-3.7,1.9-7.8-2-4.1-5.3-6.4-13.7-8.6-10.7-2.9-15.3-6.5-18.5-13-4.4-9.1-2.5-16.5,6.2-20.7"/>
        <path class="cls-1" d="M306.3,222.8h0c2.4-2.1,6-2,8.1.4l41.6,45.8c2.1,2.4,2,6-.4,8.1-2.4,2.1-6,2-8.1-.4l-41.6-45.8c-2.1-2.4-2-6,.4-8.1"/>
        <path class="cls-1" d="M351.6,212.4h-.2c0,.1,26.4,40.2,26.4,40.2,1.6,2.4.9,5.6-1.5,7.1h0c-2.4,1.6-5.6,1-7.1-1.4l-33.9-51.4c-2-3.1-1.2-7.2,1.9-9.3l2.2-1.4c2.5-1.7,5.9-1.4,8.2.6l30.1,26.8h.2c0-.1-21.4-32.5-21.4-32.5-1.6-2.4-.9-5.6,1.5-7.1,2.4-1.6,5.6-.9,7.1,1.5l33.9,51.4c2,3.1,1.2,7.2-1.9,9.3-2.5,1.7-5.9,1.4-8.1-.6l-37.2-33.2Z"/>
        <path class="cls-1" d="M410.7,191.8l9.8-4.1c2.7-1.1,5.7.2,6.9,2.8h0c1.1,2.7-.2,5.7-2.8,6.9l-9.8,4.1,8.3,19.8,13.6-5.6c2.7-1.1,5.7.2,6.9,2.8,1.1,2.7-.2,5.7-2.8,6.9l-18.6,7.7c-3.1,1.3-6.7-.2-8-3.3l-23.5-56.5c-1.3-3.1.2-6.7,3.3-8l18.6-7.7c2.7-1.1,5.7.2,6.9,2.8,1.1,2.7-.2,5.7-2.8,6.9l-13.6,5.6,7.9,18.9Z"/>
        <path class="cls-1" d="M473.3,202.3h.2s-3.6-55.9-3.6-55.9c-.2-2.6,1.6-4.9,4.1-5.4,3.1-.7,6.1,1.6,6.3,4.8l3.3,59.5c.3,4.9-3.1,9.3-7.9,10.4-4.8,1-9.7-1.6-11.5-6.3l-21.1-55.7c-1.1-3,.7-6.3,3.8-6.9l1-.2c2.5-.5,5.1.9,6,3.3l19.4,52.5Z"/>
        <path class="cls-1" d="M509.9,137.1h0c3.2-.2,5.9,2.2,6.1,5.4l3.6,61.8c.2,3.2-2.2,5.9-5.4,6.1-3.2.2-5.9-2.2-6.1-5.4l-3.6-61.8c-.2-3.2,2.2-5.9,5.4-6.1"/>
        <path class="cls-1" d="M544.1,136.6l25.1,2c2.9.2,5,2.8,4.8,5.6-.2,2.9-2.8,5-5.6,4.8l-6.8-.5-4.7,57.5c-.2,2.9-2.8,5-5.6,4.8h-1c-2.9-.3-5-2.8-4.8-5.7l4.7-57.5-6.8-.5c-2.9-.2-5-2.8-4.8-5.6.2-2.9,2.8-5,5.6-4.8"/>
        <path class="cls-1" d="M607.3,221.4l-1-.3c-2.5-.6-4.2-3-3.9-5.6l.9-8.9-13.7-3.5-3.5,8.3c-1,2.4-3.6,3.7-6.1,3-3.1-.8-4.8-4.2-3.5-7.1l23.7-54.9c1.9-4.5,6.8-6.9,11.5-5.7,4.7,1.2,7.9,5.6,7.4,10.5l-5.4,59.5c-.3,3.2-3.4,5.4-6.5,4.6M593.4,193.9l10.8,2.7,3.9-37.3h-.2c0,0-14.4,34.6-14.4,34.6Z"/>
        <path class="cls-1" d="M680.2,191.1l-1.1,2.4c-3.2,6.8-7.3,10.1-13,10.1v.2c4.5,4.8,4.3,10.8,1,17.8l-2.6,5.4c-4.9,10.2-12.9,13.2-23.3,8.2l-11.4-5.4c-2.7-1.3-3.9-4.6-2.6-7.3l26.7-56.4c1.3-2.7,4.6-3.9,7.3-2.6l10.8,5.1c10.8,5.1,13.1,12.3,8.2,22.6M649.4,202.5l-9.7,20.4,6,2.8c3.5,1.7,6.2.9,8.5-4l2.7-5.8c2.9-6.2,1.8-9-2.9-11.2l-4.6-2.2ZM662.2,175.5l-8.3,17.5,4.1,1.9c3.9,1.8,7.1,1.3,9.6-4l1.8-3.7c2.2-4.7,1.6-7.6-2.1-9.3l-5-2.4Z"/>
        <path class="cls-1" d="M716.2,193.7l.9.6c2.4,1.7,2.9,5,1.2,7.3l-33.6,46.9,11.2,8c2.4,1.7,2.9,5,1.2,7.3-1.7,2.4-5,2.9-7.3,1.2l-11.9-8.5c-4.8-3.4-5.9-10.1-2.5-14.9l33.5-46.8c1.7-2.4,5-2.9,7.3-1.2"/>
        <path class="cls-1" d="M741.7,254.7l7.4,7.5c2,2.1,2,5.4,0,7.4-2.1,2-5.4,2-7.4,0l-7.4-7.5-15.3,15.1,10.3,10.5c2,2.1,2,5.4,0,7.4-2.1,2-5.4,2-7.4,0l-14.2-14.4c-2.3-2.3-2.3-6.1,0-8.4l43.8-43.2c2.3-2.3,6.1-2.3,8.4,0l14.2,14.4c2,2.1,2,5.4,0,7.4-2.1,2-5.4,2-7.4,0l-10.3-10.5-14.6,14.4Z"/>
      </g>
    </g>
  </g>
</svg>